ply
format ascii 1.0
comment Created by Blender 2.69 (sub 0) - www.blender.org, source file: ''
element vertex 704
property float x
property float y
property float z
property float nx
property float ny
property float nz
element face 220
property list uchar uint vertex_indices
end_header
0.000000 0.105382 0.249819 -0.098015 -0.995185 0.000000
0.000000 0.105382 -0.416589 -0.098015 -0.995185 0.000000
0.020559 0.103357 -0.416589 -0.098015 -0.995185 0.000000
0.020559 0.103357 0.249819 -0.098015 -0.995185 0.000000
0.020559 0.103357 0.249819 -0.290285 -0.956940 0.000000
0.020559 0.103357 -0.416589 -0.290285 -0.956940 0.000000
0.040328 0.097360 -0.416589 -0.290285 -0.956940 0.000000
0.040328 0.097360 0.249819 -0.290285 -0.956940 0.000000
0.040328 0.097360 0.249819 -0.471398 -0.881920 0.000000
0.040328 0.097360 -0.416589 -0.471398 -0.881920 0.000000
0.058547 0.087622 -0.416589 -0.471398 -0.881920 0.000000
0.058547 0.087622 0.249819 -0.471398 -0.881920 0.000000
0.058547 0.087622 0.249819 -0.634393 -0.773011 0.000000
0.058547 0.087622 -0.416589 -0.634393 -0.773011 0.000000
0.074516 0.074516 -0.416589 -0.634393 -0.773011 0.000000
0.074516 0.074516 0.249819 -0.634393 -0.773011 0.000000
0.074516 0.074516 0.249819 -0.773010 -0.634393 0.000000
0.074516 0.074516 -0.416589 -0.773010 -0.634393 0.000000
0.087622 0.058547 -0.416589 -0.773010 -0.634393 0.000000
0.087622 0.058547 0.249819 -0.773010 -0.634393 0.000000
0.087622 0.058547 0.249819 -0.881920 -0.471398 0.000000
0.087622 0.058547 -0.416589 -0.881920 -0.471398 0.000000
0.097360 0.040328 -0.416589 -0.881920 -0.471398 0.000000
0.097360 0.040328 0.249819 -0.881920 -0.471398 0.000000
0.097360 0.040328 0.249819 -0.956941 -0.290282 0.000000
0.097360 0.040328 -0.416589 -0.956941 -0.290282 0.000000
0.103357 0.020559 -0.416589 -0.956941 -0.290282 0.000000
0.103357 0.020559 0.249819 -0.956941 -0.290282 0.000000
0.103357 0.020559 0.249819 -0.995185 -0.098018 0.000000
0.103357 0.020559 -0.416589 -0.995185 -0.098018 0.000000
0.105382 0.000000 -0.416589 -0.995185 -0.098018 0.000000
0.105382 0.000000 0.249819 -0.995185 -0.098018 0.000000
0.105382 0.000000 0.249819 -0.995185 0.098018 0.000000
0.105382 0.000000 -0.416589 -0.995185 0.098018 0.000000
0.103357 -0.020559 -0.416589 -0.995185 0.098018 0.000000
0.103357 -0.020559 0.249819 -0.995185 0.098018 0.000000
0.103357 -0.020559 0.249819 -0.956941 0.290282 0.000000
0.103357 -0.020559 -0.416589 -0.956941 0.290282 0.000000
0.097360 -0.040327 -0.416589 -0.956941 0.290282 0.000000
0.097360 -0.040327 0.249819 -0.956941 0.290282 0.000000
0.097360 -0.040327 0.249819 -0.881921 0.471398 0.000000
0.097360 -0.040327 -0.416589 -0.881921 0.471398 0.000000
0.087622 -0.058547 -0.416589 -0.881921 0.471398 0.000000
0.087622 -0.058547 0.249819 -0.881921 0.471398 0.000000
0.087622 -0.058547 0.249819 -0.773010 0.634394 0.000000
0.087622 -0.058547 -0.416589 -0.773010 0.634394 0.000000
0.074516 -0.074516 -0.416589 -0.773010 0.634394 0.000000
0.074516 -0.074516 0.249819 -0.773010 0.634394 0.000000
0.074516 -0.074516 0.249819 -0.634395 0.773009 0.000000
0.074516 -0.074516 -0.416589 -0.634395 0.773009 0.000000
0.058547 -0.087621 -0.416589 -0.634395 0.773009 0.000000
0.058547 -0.087621 0.249819 -0.634395 0.773009 0.000000
0.058547 -0.087621 0.249819 -0.471395 0.881922 0.000000
0.058547 -0.087621 -0.416589 -0.471395 0.881922 0.000000
0.040328 -0.097360 -0.416589 -0.471395 0.881922 0.000000
0.040328 -0.097360 0.249819 -0.471395 0.881922 0.000000
0.040328 -0.097360 0.249819 -0.290285 0.956940 0.000000
0.040328 -0.097360 -0.416589 -0.290285 0.956940 0.000000
0.020559 -0.103356 -0.416589 -0.290285 0.956940 0.000000
0.020559 -0.103356 0.249819 -0.290285 0.956940 0.000000
0.020559 -0.103356 0.249819 -0.098018 0.995185 0.000000
0.020559 -0.103356 -0.416589 -0.098018 0.995185 0.000000
0.000000 -0.105381 -0.416589 -0.098018 0.995185 0.000000
0.000000 -0.105381 0.249819 -0.098018 0.995185 0.000000
0.000000 -0.105381 0.249819 0.098018 0.995185 0.000000
0.000000 -0.105381 -0.416589 0.098018 0.995185 0.000000
-0.020559 -0.103356 -0.416589 0.098018 0.995185 0.000000
-0.020559 -0.103356 0.249819 0.098018 0.995185 0.000000
-0.020559 -0.103356 0.249819 0.290285 0.956940 0.000000
-0.020559 -0.103356 -0.416589 0.290285 0.956940 0.000000
-0.040328 -0.097360 -0.416589 0.290285 0.956940 0.000000
-0.040328 -0.097360 0.249819 0.290285 0.956940 0.000000
-0.040328 -0.097360 0.249819 0.471398 0.881921 0.000000
-0.040328 -0.097360 -0.416589 0.471398 0.881921 0.000000
-0.058547 -0.087621 -0.416589 0.471398 0.881921 0.000000
-0.058547 -0.087621 0.249819 0.471398 0.881921 0.000000
-0.058547 -0.087621 0.249819 0.634394 0.773010 0.000000
-0.058547 -0.087621 -0.416589 0.634394 0.773010 0.000000
-0.074516 -0.074516 -0.416589 0.634394 0.773010 0.000000
-0.074516 -0.074516 0.249819 0.634394 0.773010 0.000000
-0.074516 -0.074516 0.249819 0.773011 0.634392 0.000000
-0.074516 -0.074516 -0.416589 0.773011 0.634392 0.000000
-0.087622 -0.058546 -0.416589 0.773011 0.634392 0.000000
-0.087622 -0.058546 0.249819 0.773011 0.634392 0.000000
-0.087622 -0.058546 0.249819 0.881921 0.471398 0.000000
-0.087622 -0.058546 -0.416589 0.881921 0.471398 0.000000
-0.097360 -0.040327 -0.416589 0.881921 0.471398 0.000000
-0.097360 -0.040327 0.249819 0.881921 0.471398 0.000000
-0.097360 -0.040327 0.249819 0.956941 0.290282 0.000000
-0.097360 -0.040327 -0.416589 0.956941 0.290282 0.000000
-0.103357 -0.020559 -0.416589 0.956941 0.290282 0.000000
-0.103357 -0.020559 0.249819 0.956941 0.290282 0.000000
-0.103357 -0.020559 0.249819 0.995185 0.098018 0.000000
-0.103357 -0.020559 -0.416589 0.995185 0.098018 0.000000
-0.105381 0.000000 -0.416589 0.995185 0.098018 0.000000
-0.105381 0.000000 0.249819 0.995185 0.098018 0.000000
-0.105381 0.000000 0.249819 0.995185 -0.098018 0.000000
-0.105381 0.000000 -0.416589 0.995185 -0.098018 0.000000
-0.103357 0.020559 -0.416589 0.995185 -0.098018 0.000000
-0.103357 0.020559 0.249819 0.995185 -0.098018 0.000000
-0.103357 0.020559 0.249819 0.956939 -0.290288 0.000000
-0.103357 0.020559 -0.416589 0.956939 -0.290288 0.000000
-0.097360 0.040328 -0.416589 0.956939 -0.290288 0.000000
-0.097360 0.040328 0.249819 0.956939 -0.290288 0.000000
-0.097360 0.040328 0.249819 0.881921 -0.471398 0.000000
-0.097360 0.040328 -0.416589 0.881921 -0.471398 0.000000
-0.087621 0.058547 -0.416589 0.881921 -0.471398 0.000000
-0.087621 0.058547 0.249819 0.881921 -0.471398 0.000000
-0.087621 0.058547 0.249819 0.773009 -0.634395 0.000000
-0.087621 0.058547 -0.416589 0.773009 -0.634395 0.000000
-0.074516 0.074516 -0.416589 0.773009 -0.634395 0.000000
-0.074516 0.074516 0.249819 0.773009 -0.634395 0.000000
-0.074516 0.074516 0.249819 0.634394 -0.773010 0.000000
-0.074516 0.074516 -0.416589 0.634394 -0.773010 0.000000
-0.058547 0.087622 -0.416589 0.634394 -0.773010 0.000000
-0.058547 0.087622 0.249819 0.634394 -0.773010 0.000000
-0.058547 0.087622 0.249819 0.471395 -0.881922 0.000000
-0.058547 0.087622 -0.416589 0.471395 -0.881922 0.000000
-0.040328 0.097360 -0.416589 0.471395 -0.881922 0.000000
-0.040328 0.097360 0.249819 0.471395 -0.881922 0.000000
0.020559 0.103357 -0.416589 -0.000000 0.000000 1.000000
0.000000 0.105382 -0.416589 -0.000000 0.000000 1.000000
-0.020559 0.103357 -0.416589 -0.000000 0.000000 1.000000
-0.040328 0.097360 -0.416589 0.000000 0.000000 1.000000
0.040328 0.097360 -0.416589 0.000000 -0.000000 1.000000
-0.058547 0.087622 -0.416589 0.000000 -0.000000 1.000000
0.058547 0.087622 -0.416589 0.000000 0.000000 1.000000
-0.074516 0.074516 -0.416589 0.000000 -0.000000 1.000000
0.074516 0.074516 -0.416589 0.000000 0.000000 1.000000
-0.087621 0.058547 -0.416589 0.000000 -0.000000 1.000000
0.087622 0.058547 -0.416589 0.000000 0.000000 1.000000
-0.097360 0.040328 -0.416589 0.000000 -0.000000 1.000000
0.097360 0.040328 -0.416589 0.000000 0.000000 1.000000
-0.103357 0.020559 -0.416589 0.000000 -0.000000 1.000000
0.103357 0.020559 -0.416589 0.000000 0.000000 1.000000
-0.105381 0.000000 -0.416589 0.000000 -0.000000 1.000000
0.105382 0.000000 -0.416589 0.000000 0.000000 1.000000
-0.103357 -0.020559 -0.416589 0.000000 0.000000 1.000000
0.103357 -0.020559 -0.416589 0.000000 0.000000 1.000000
-0.097360 -0.040327 -0.416589 0.000000 0.000000 1.000000
0.097360 -0.040327 -0.416589 0.000000 0.000000 1.000000
-0.087622 -0.058546 -0.416589 0.000000 0.000000 1.000000
0.087622 -0.058547 -0.416589 0.000000 0.000000 1.000000
-0.074516 -0.074516 -0.416589 0.000000 0.000000 1.000000
0.074516 -0.074516 -0.416589 0.000000 0.000000 1.000000
-0.058547 -0.087621 -0.416589 0.000000 0.000000 1.000000
0.058547 -0.087621 -0.416589 0.000000 0.000000 1.000000
-0.040328 -0.097360 -0.416589 0.000000 0.000000 1.000000
0.040328 -0.097360 -0.416589 0.000000 0.000000 1.000000
-0.020559 -0.103356 -0.416589 0.000000 0.000000 1.000000
0.020559 -0.103356 -0.416589 0.000000 0.000000 1.000000
0.000000 -0.105381 -0.416589 0.000000 0.000000 1.000000
-0.020559 0.103357 0.249819 0.098016 -0.995185 0.000000
-0.020559 0.103357 -0.416589 0.098016 -0.995185 0.000000
0.000000 0.105382 -0.416589 0.098016 -0.995185 0.000000
0.000000 0.105382 0.249819 0.098016 -0.995185 0.000000
-0.040328 0.097360 0.249819 0.290282 -0.956941 0.000000
-0.040328 0.097360 -0.416589 0.290282 -0.956941 0.000000
-0.020559 0.103357 -0.416589 0.290282 -0.956941 0.000000
-0.020559 0.103357 0.249819 0.290282 -0.956941 0.000000
0.000000 0.056666 0.451436 0.000000 0.000000 -1.000000
0.011055 0.055577 0.451436 0.000000 0.000000 -1.000000
-0.011055 0.055577 0.451436 0.000000 0.000000 -1.000000
0.021685 0.052352 0.451436 0.000000 0.000000 -1.000000
-0.021685 0.052352 0.451436 0.000000 -0.000000 -1.000000
-0.031482 0.047116 0.451436 0.000000 -0.000000 -1.000000
0.031482 0.047116 0.451436 0.000000 0.000000 -1.000000
-0.040068 0.040069 0.451436 0.000000 -0.000000 -1.000000
0.040069 0.040069 0.451436 0.000000 0.000000 -1.000000
-0.047116 0.031482 0.451436 0.000000 -0.000000 -1.000000
0.047116 0.031482 0.451436 0.000000 0.000000 -1.000000
-0.052352 0.021685 0.451436 0.000000 -0.000000 -1.000000
0.052352 0.021685 0.451436 0.000000 0.000000 -1.000000
-0.055577 0.011055 0.451436 0.000000 -0.000000 -1.000000
0.055577 0.011055 0.451436 0.000000 0.000000 -1.000000
-0.056666 0.000000 0.451436 0.000000 -0.000000 -1.000000
0.056666 0.000000 0.451436 0.000000 0.000000 -1.000000
-0.055577 -0.011055 0.451436 0.000000 0.000000 -1.000000
0.055577 -0.011055 0.451436 0.000000 0.000000 -1.000000
-0.052352 -0.021685 0.451436 0.000000 0.000000 -1.000000
0.052352 -0.021685 0.451436 0.000000 0.000000 -1.000000
-0.047116 -0.031481 0.451436 0.000000 0.000000 -1.000000
0.047116 -0.031481 0.451436 0.000000 0.000000 -1.000000
-0.040069 -0.040068 0.451436 0.000000 0.000000 -1.000000
0.040069 -0.040068 0.451436 0.000000 0.000000 -1.000000
-0.031482 -0.047115 0.451436 0.000000 0.000000 -1.000000
0.031482 -0.047115 0.451436 0.000000 0.000000 -1.000000
-0.021685 -0.052352 0.451436 0.000000 0.000000 -1.000000
0.021685 -0.052352 0.451436 0.000000 0.000000 -1.000000
0.011055 -0.055576 0.451436 0.000000 0.000000 -1.000000
-0.011055 -0.055576 0.451436 0.000000 0.000000 -1.000000
0.000000 -0.056665 0.451436 0.000000 0.000000 -1.000000
0.000000 0.056666 0.451436 -0.085256 -0.865634 -0.493365
0.000000 0.105382 0.365961 -0.085256 -0.865634 -0.493365
0.020559 0.103357 0.365961 -0.085256 -0.865634 -0.493365
0.011055 0.055577 0.451436 -0.085256 -0.865634 -0.493365
0.011055 0.055577 0.451436 -0.252496 -0.832368 -0.493365
0.020559 0.103357 0.365961 -0.252496 -0.832368 -0.493365
0.040328 0.097360 0.365961 -0.252496 -0.832368 -0.493365
0.021685 0.052352 0.451436 -0.252496 -0.832368 -0.493365
0.021685 0.052352 0.451436 -0.410033 -0.767114 -0.493365
0.040328 0.097360 0.365961 -0.410033 -0.767114 -0.493365
0.058547 0.087622 0.365961 -0.410033 -0.767114 -0.493365
0.031482 0.047116 0.451436 -0.410033 -0.767114 -0.493365
0.031482 0.047116 0.451436 -0.551809 -0.672382 -0.493365
0.058547 0.087622 0.365961 -0.551809 -0.672382 -0.493365
0.074516 0.074516 0.365961 -0.551809 -0.672382 -0.493365
0.040069 0.040069 0.451436 -0.551809 -0.672382 -0.493365
0.040069 0.040069 0.451436 -0.672382 -0.551809 -0.493365
0.074516 0.074516 0.365961 -0.672382 -0.551809 -0.493365
0.087622 0.058547 0.365961 -0.672382 -0.551809 -0.493365
0.047116 0.031482 0.451436 -0.672382 -0.551809 -0.493365
0.047116 0.031482 0.451436 -0.767114 -0.410033 -0.493365
0.087622 0.058547 0.365961 -0.767114 -0.410033 -0.493365
0.097360 0.040328 0.365961 -0.767114 -0.410033 -0.493365
0.052352 0.021685 0.451436 -0.767114 -0.410033 -0.493365
0.052352 0.021685 0.451436 -0.832368 -0.252494 -0.493365
0.097360 0.040328 0.365961 -0.832368 -0.252494 -0.493365
0.103357 0.020559 0.365961 -0.832368 -0.252494 -0.493365
0.055577 0.011055 0.451436 -0.832368 -0.252494 -0.493365
0.055577 0.011055 0.451436 -0.865634 -0.085258 -0.493365
0.103357 0.020559 0.365961 -0.865634 -0.085258 -0.493365
0.105382 0.000000 0.365961 -0.865634 -0.085258 -0.493365
0.056666 0.000000 0.451436 -0.865634 -0.085258 -0.493365
0.056666 0.000000 0.451436 -0.865634 0.085258 -0.493365
0.105382 0.000000 0.365961 -0.865634 0.085258 -0.493365
0.103357 -0.020559 0.365961 -0.865634 0.085258 -0.493365
0.055577 -0.011055 0.451436 -0.865634 0.085258 -0.493365
0.055577 -0.011055 0.451436 -0.832368 0.252494 -0.493366
0.103357 -0.020559 0.365961 -0.832368 0.252494 -0.493366
0.097360 -0.040327 0.365961 -0.832368 0.252494 -0.493366
0.052352 -0.021685 0.451436 -0.832368 0.252494 -0.493366
0.052352 -0.021685 0.451436 -0.767114 0.410032 -0.493366
0.097360 -0.040327 0.365961 -0.767114 0.410032 -0.493366
0.087622 -0.058547 0.365961 -0.767114 0.410032 -0.493366
0.047116 -0.031481 0.451436 -0.767114 0.410032 -0.493366
0.047116 -0.031481 0.451436 -0.672381 0.551810 -0.493366
0.087622 -0.058547 0.365961 -0.672381 0.551810 -0.493366
0.074516 -0.074516 0.365961 -0.672381 0.551810 -0.493366
0.040069 -0.040068 0.451436 -0.672381 0.551810 -0.493366
0.040069 -0.040068 0.451436 -0.551810 0.672381 -0.493366
0.074516 -0.074516 0.365961 -0.551810 0.672381 -0.493366
0.058547 -0.087621 0.365961 -0.551810 0.672381 -0.493366
0.031482 -0.047115 0.451436 -0.551810 0.672381 -0.493366
0.031482 -0.047115 0.451436 -0.410030 0.767115 -0.493366
0.058547 -0.087621 0.365961 -0.410030 0.767115 -0.493366
0.040328 -0.097360 0.365961 -0.410030 0.767115 -0.493366
0.021685 -0.052352 0.451436 -0.410030 0.767115 -0.493366
0.021685 -0.052352 0.451436 -0.252496 0.832368 -0.493366
0.040328 -0.097360 0.365961 -0.252496 0.832368 -0.493366
0.020559 -0.103356 0.365961 -0.252496 0.832368 -0.493366
0.011055 -0.055576 0.451436 -0.252496 0.832368 -0.493366
0.011055 -0.055576 0.451436 -0.085258 0.865634 -0.493366
0.020559 -0.103356 0.365961 -0.085258 0.865634 -0.493366
0.000000 -0.105381 0.365961 -0.085258 0.865634 -0.493366
0.000000 -0.056665 0.451436 -0.085258 0.865634 -0.493366
0.000000 -0.056665 0.451436 0.085258 0.865633 -0.493366
0.000000 -0.105381 0.365961 0.085258 0.865633 -0.493366
-0.020559 -0.103356 0.365961 0.085258 0.865633 -0.493366
-0.011055 -0.055576 0.451436 0.085258 0.865633 -0.493366
-0.011055 -0.055576 0.451436 0.252496 0.832368 -0.493366
-0.020559 -0.103356 0.365961 0.252496 0.832368 -0.493366
-0.040328 -0.097360 0.365961 0.252496 0.832368 -0.493366
-0.021685 -0.052352 0.451436 0.252496 0.832368 -0.493366
-0.021685 -0.052352 0.451436 0.410032 0.767114 -0.493366
-0.040328 -0.097360 0.365961 0.410032 0.767114 -0.493366
-0.058547 -0.087621 0.365961 0.410032 0.767114 -0.493366
-0.031482 -0.047115 0.451436 0.410032 0.767114 -0.493366
-0.031482 -0.047115 0.451436 0.551810 0.672381 -0.493366
-0.058547 -0.087621 0.365961 0.551810 0.672381 -0.493366
-0.074516 -0.074516 0.365961 0.551810 0.672381 -0.493366
-0.040069 -0.040068 0.451436 0.551810 0.672381 -0.493366
-0.040069 -0.040068 0.451436 0.672382 0.551808 -0.493366
-0.074516 -0.074516 0.365961 0.672382 0.551808 -0.493366
-0.087622 -0.058546 0.365961 0.672382 0.551808 -0.493366
-0.047116 -0.031481 0.451436 0.672382 0.551808 -0.493366
-0.047116 -0.031481 0.451436 0.767114 0.410032 -0.493366
-0.087622 -0.058546 0.365961 0.767114 0.410032 -0.493366
-0.097360 -0.040327 0.365961 0.767114 0.410032 -0.493366
-0.052352 -0.021685 0.451436 0.767114 0.410032 -0.493366
-0.052352 -0.021685 0.451436 0.832368 0.252494 -0.493366
-0.097360 -0.040327 0.365961 0.832368 0.252494 -0.493366
-0.103357 -0.020559 0.365961 0.832368 0.252494 -0.493366
-0.055577 -0.011055 0.451436 0.832368 0.252494 -0.493366
-0.055577 -0.011055 0.451436 0.865634 0.085258 -0.493366
-0.103357 -0.020559 0.365961 0.865634 0.085258 -0.493366
-0.105381 0.000000 0.365961 0.865634 0.085258 -0.493366
-0.056666 0.000000 0.451436 0.865634 0.085258 -0.493366
-0.056666 0.000000 0.451436 0.865634 -0.085258 -0.493366
-0.105381 0.000000 0.365961 0.865634 -0.085258 -0.493366
-0.103357 0.020559 0.365961 0.865634 -0.085258 -0.493366
-0.055577 0.011055 0.451436 0.865634 -0.085258 -0.493366
-0.055577 0.011055 0.451436 0.832367 -0.252499 -0.493366
-0.103357 0.020559 0.365961 0.832367 -0.252499 -0.493366
-0.097360 0.040328 0.365961 0.832367 -0.252499 -0.493366
-0.052352 0.021685 0.451436 0.832367 -0.252499 -0.493366
-0.052352 0.021685 0.451436 0.767114 -0.410032 -0.493365
-0.097360 0.040328 0.365961 0.767114 -0.410032 -0.493365
-0.087621 0.058547 0.365961 0.767114 -0.410032 -0.493365
-0.047116 0.031482 0.451436 0.767114 -0.410032 -0.493365
-0.047116 0.031482 0.451436 0.672381 -0.551811 -0.493365
-0.087621 0.058547 0.365961 0.672381 -0.551811 -0.493365
-0.074516 0.074516 0.365961 0.672381 -0.551811 -0.493365
-0.040068 0.040069 0.451436 0.672381 -0.551811 -0.493365
-0.040068 0.040069 0.451436 0.551810 -0.672381 -0.493365
-0.074516 0.074516 0.365961 0.551810 -0.672381 -0.493365
-0.058547 0.087622 0.365961 0.551810 -0.672381 -0.493365
-0.031482 0.047116 0.451436 0.551810 -0.672381 -0.493365
-0.031482 0.047116 0.451436 0.410030 -0.767115 -0.493366
-0.058547 0.087622 0.365961 0.410030 -0.767115 -0.493366
-0.040328 0.097360 0.365961 0.410030 -0.767115 -0.493366
-0.021685 0.052352 0.451436 0.410030 -0.767115 -0.493366
0.000000 0.105382 0.365961 0.085256 -0.865634 -0.493365
0.000000 0.056666 0.451436 0.085256 -0.865634 -0.493365
-0.011055 0.055577 0.451436 0.085256 -0.865634 -0.493365
-0.020559 0.103357 0.365961 0.085256 -0.865634 -0.493365
-0.021685 0.052352 0.451436 0.252494 -0.832369 -0.493365
-0.040328 0.097360 0.365961 0.252494 -0.832369 -0.493365
-0.020559 0.103357 0.365961 0.252494 -0.832369 -0.493365
-0.011055 0.055577 0.451436 0.252494 -0.832369 -0.493365
0.097360 -0.040327 0.249819 -0.580880 0.310488 -0.752446
0.087622 -0.058547 0.249819 -0.580880 0.310488 -0.752446
0.062287 -0.041618 0.276363 -0.580880 0.310488 -0.752446
0.069210 -0.028667 0.276363 -0.580880 0.310488 -0.752446
0.020559 0.103357 0.365961 -0.087798 -0.891454 0.444524
0.000000 0.105382 0.365961 -0.087798 -0.891454 0.444524
0.000000 0.074912 0.304857 -0.087798 -0.891454 0.444524
0.014615 0.073473 0.304857 -0.087798 -0.891454 0.444524
-0.103357 -0.020559 0.365961 0.857196 0.260025 0.444524
-0.097360 -0.040327 0.365961 0.857196 0.260025 0.444524
-0.069209 -0.028667 0.304857 0.857196 0.260025 0.444524
-0.073472 -0.014614 0.304857 0.857196 0.260025 0.444524
0.105382 0.000000 0.365961 -0.891453 -0.087801 0.444524
0.103357 0.020559 0.365961 -0.891453 -0.087801 0.444524
0.073472 0.014615 0.304857 -0.891453 -0.087801 0.444524
0.074912 0.000000 0.304857 -0.891453 -0.087801 0.444524
-0.020559 -0.103356 0.249819 0.191197 0.630292 -0.752446
-0.040328 -0.097360 0.249819 0.191197 0.630292 -0.752446
-0.028667 -0.069209 0.276363 0.191197 0.630292 -0.752446
-0.014615 -0.073472 0.276363 0.191197 0.630292 -0.752446
0.040328 0.097360 0.249819 -0.310488 -0.580880 -0.752446
0.058547 0.087622 0.249819 -0.310488 -0.580880 -0.752446
0.041619 0.062287 0.276363 -0.310488 -0.580880 -0.752446
0.028668 0.069210 0.276363 -0.310488 -0.580880 -0.752446
-0.040328 0.097360 0.365961 0.422260 -0.789997 0.444524
-0.058547 0.087622 0.365961 0.422260 -0.789997 0.444524
-0.041619 0.062287 0.304857 0.422260 -0.789997 0.444524
-0.028667 0.069210 0.304857 0.422260 -0.789997 0.444524
0.020559 -0.103356 0.365961 -0.260028 0.857195 0.444524
0.040328 -0.097360 0.365961 -0.260028 0.857195 0.444524
0.028668 -0.069209 0.304857 -0.260028 0.857195 0.444524
0.014615 -0.073472 0.304857 -0.260028 0.857195 0.444524
-0.105381 0.000000 0.249819 0.655482 -0.064560 -0.752446
-0.103357 0.020559 0.249819 0.655482 -0.064560 -0.752446
-0.073472 0.014615 0.276363 0.655482 -0.064560 -0.752446
-0.074912 0.000000 0.276363 0.655482 -0.064560 -0.752446
0.103357 -0.020559 0.249819 -0.630293 0.191196 -0.752446
0.097360 -0.040327 0.249819 -0.630293 0.191196 -0.752446
0.069210 -0.028667 0.276363 -0.630293 0.191196 -0.752446
0.073472 -0.014614 0.276363 -0.630293 0.191196 -0.752446
-0.097360 -0.040327 0.365961 0.789995 0.422262 0.444524
-0.087622 -0.058546 0.365961 0.789995 0.422262 0.444524
-0.062287 -0.041618 0.304857 0.789995 0.422262 0.444524
-0.069209 -0.028667 0.304857 0.789995 0.422262 0.444524
-0.040328 0.097360 0.249819 0.191195 -0.630293 -0.752446
-0.020559 0.103357 0.249819 0.191195 -0.630293 -0.752446
-0.014614 0.073473 0.276363 0.191195 -0.630293 -0.752446
-0.028667 0.069210 0.276363 0.191195 -0.630293 -0.752446
0.000000 -0.105381 0.249819 0.064560 0.655482 -0.752446
-0.020559 -0.103356 0.249819 0.064560 0.655482 -0.752446
-0.014615 -0.073472 0.276363 0.064560 0.655482 -0.752446
0.000000 -0.074912 0.276363 0.064560 0.655482 -0.752446
0.103357 0.020559 0.365961 -0.857196 -0.260025 0.444524
0.097360 0.040328 0.365961 -0.857196 -0.260025 0.444524
0.069210 0.028668 0.304857 -0.857196 -0.260025 0.444524
0.073472 0.014615 0.304857 -0.857196 -0.260025 0.444524
0.020559 0.103357 0.249819 -0.191197 -0.630292 -0.752446
0.040328 0.097360 0.249819 -0.191197 -0.630292 -0.752446
0.028668 0.069210 0.276363 -0.191197 -0.630292 -0.752446
0.014615 0.073473 0.276363 -0.191197 -0.630292 -0.752446
-0.058547 0.087622 0.365961 0.568269 -0.692437 0.444524
-0.074516 0.074516 0.365961 0.568269 -0.692437 0.444524
-0.052971 0.052971 0.304857 0.568269 -0.692437 0.444524
-0.041619 0.062287 0.304857 0.568269 -0.692437 0.444524
0.040328 -0.097360 0.365961 -0.422260 0.789996 0.444524
0.058547 -0.087621 0.365961 -0.422260 0.789996 0.444524
0.041619 -0.062287 0.304857 -0.422260 0.789996 0.444524
0.028668 -0.069209 0.304857 -0.422260 0.789996 0.444524
-0.103357 -0.020559 0.249819 0.655482 0.064560 -0.752446
-0.105381 0.000000 0.249819 0.655482 0.064560 -0.752446
-0.074912 0.000000 0.276363 0.655482 0.064560 -0.752446
-0.073472 -0.014614 0.276363 0.655482 0.064560 -0.752446
0.105382 0.000000 0.249819 -0.655482 0.064560 -0.752446
0.103357 -0.020559 0.249819 -0.655482 0.064560 -0.752446
0.073472 -0.014614 0.276363 -0.655482 0.064560 -0.752446
0.074912 0.000000 0.276363 -0.655482 0.064560 -0.752446
-0.087622 -0.058546 0.365961 0.692438 0.568267 0.444524
-0.074516 -0.074516 0.365961 0.692438 0.568267 0.444524
-0.052971 -0.052970 0.304857 0.692438 0.568267 0.444524
-0.062287 -0.041618 0.304857 0.692438 0.568267 0.444524
-0.020559 0.103357 0.249819 0.064558 -0.655482 -0.752446
0.000000 0.105382 0.249819 0.064558 -0.655482 -0.752446
0.000000 0.074912 0.276363 0.064558 -0.655482 -0.752446
-0.014614 0.073473 0.276363 0.064558 -0.655482 -0.752446
0.020559 -0.103356 0.249819 -0.064560 0.655482 -0.752446
0.000000 -0.105381 0.249819 -0.064560 0.655482 -0.752446
0.000000 -0.074912 0.276363 -0.064560 0.655482 -0.752446
0.014615 -0.073472 0.276363 -0.064560 0.655482 -0.752446
0.097360 0.040328 0.365961 -0.789995 -0.422263 0.444524
0.087622 0.058547 0.365961 -0.789995 -0.422263 0.444524
0.062287 0.041619 0.304857 -0.789995 -0.422263 0.444524
0.069210 0.028668 0.304857 -0.789995 -0.422263 0.444524
0.000000 0.105382 0.249819 -0.064558 -0.655482 -0.752446
0.020559 0.103357 0.249819 -0.064558 -0.655482 -0.752446
0.014615 0.073473 0.276363 -0.064558 -0.655482 -0.752446
0.000000 0.074912 0.276363 -0.064558 -0.655482 -0.752446
-0.074516 0.074516 0.365961 0.692436 -0.568270 0.444524
-0.087621 0.058547 0.365961 0.692436 -0.568270 0.444524
-0.062287 0.041619 0.304857 0.692436 -0.568270 0.444524
-0.052971 0.052971 0.304857 0.692436 -0.568270 0.444524
0.058547 -0.087621 0.365961 -0.568270 0.692436 0.444524
0.074516 -0.074516 0.365961 -0.568270 0.692436 0.444524
0.052971 -0.052970 0.304857 -0.568270 0.692436 0.444524
0.041619 -0.062287 0.304857 -0.568270 0.692436 0.444524
-0.097360 -0.040327 0.249819 0.630293 0.191195 -0.752446
-0.103357 -0.020559 0.249819 0.630293 0.191195 -0.752446
-0.073472 -0.014614 0.276363 0.630293 0.191195 -0.752446
-0.069209 -0.028667 0.276363 0.630293 0.191195 -0.752446
0.103357 0.020559 0.249819 -0.655482 -0.064560 -0.752446
0.105382 0.000000 0.249819 -0.655482 -0.064560 -0.752446
0.074912 0.000000 0.276363 -0.655482 -0.064560 -0.752446
0.073472 0.014615 0.276363 -0.655482 -0.064560 -0.752446
-0.074516 -0.074516 0.365961 0.568269 0.692437 0.444524
-0.058547 -0.087621 0.365961 0.568269 0.692437 0.444524
-0.041619 -0.062287 0.304857 0.568269 0.692437 0.444524
-0.052971 -0.052970 0.304857 0.568269 0.692437 0.444524
-0.058547 0.087622 0.249819 0.310486 -0.580881 -0.752446
-0.040328 0.097360 0.249819 0.310486 -0.580881 -0.752446
-0.028667 0.069210 0.276363 0.310486 -0.580881 -0.752446
-0.041619 0.062287 0.276363 0.310486 -0.580881 -0.752446
0.087622 0.058547 0.365961 -0.692437 -0.568268 0.444524
0.074516 0.074516 0.365961 -0.692437 -0.568268 0.444524
0.052971 0.052971 0.304857 -0.692437 -0.568268 0.444524
0.062287 0.041619 0.304857 -0.692437 -0.568268 0.444524
0.040328 -0.097360 0.249819 -0.191197 0.630292 -0.752446
0.020559 -0.103356 0.249819 -0.191197 0.630292 -0.752446
0.014615 -0.073472 0.276363 -0.191197 0.630292 -0.752446
0.028668 -0.069209 0.276363 -0.191197 0.630292 -0.752446
0.000000 0.074912 0.304857 -0.098014 -0.995185 0.000000
0.000000 0.074912 0.276363 -0.098014 -0.995185 0.000000
0.014615 0.073473 0.276363 -0.098014 -0.995185 0.000000
0.014615 0.073473 0.304857 -0.098014 -0.995185 0.000000
0.014615 0.073473 0.304857 -0.290285 -0.956940 0.000000
0.014615 0.073473 0.276363 -0.290285 -0.956940 0.000000
0.028668 0.069210 0.276363 -0.290285 -0.956940 0.000000
0.028668 0.069210 0.304857 -0.290285 -0.956940 0.000000
0.028668 0.069210 0.304857 -0.471398 -0.881921 0.000000
0.028668 0.069210 0.276363 -0.471398 -0.881921 0.000000
0.041619 0.062287 0.276363 -0.471398 -0.881921 0.000000
0.041619 0.062287 0.304857 -0.471398 -0.881921 0.000000
0.041619 0.062287 0.304857 -0.634393 -0.773011 0.000000
0.041619 0.062287 0.276363 -0.634393 -0.773011 0.000000
0.052971 0.052971 0.276363 -0.634393 -0.773011 0.000000
0.052971 0.052971 0.304857 -0.634393 -0.773011 0.000000
0.052971 0.052971 0.304857 -0.773011 -0.634393 0.000000
0.052971 0.052971 0.276363 -0.773011 -0.634393 0.000000
0.062287 0.041619 0.276363 -0.773011 -0.634393 0.000000
0.062287 0.041619 0.304857 -0.773011 -0.634393 0.000000
0.062287 0.041619 0.304857 -0.881921 -0.471398 0.000000
0.062287 0.041619 0.276363 -0.881921 -0.471398 0.000000
0.069210 0.028668 0.276363 -0.881921 -0.471398 0.000000
0.069210 0.028668 0.304857 -0.881921 -0.471398 0.000000
0.069210 0.028668 0.304857 -0.956941 -0.290283 0.000000
0.069210 0.028668 0.276363 -0.956941 -0.290283 0.000000
0.073472 0.014615 0.276363 -0.956941 -0.290283 0.000000
0.073472 0.014615 0.304857 -0.956941 -0.290283 0.000000
0.073472 0.014615 0.304857 -0.995185 -0.098018 0.000000
0.073472 0.014615 0.276363 -0.995185 -0.098018 0.000000
0.074912 0.000000 0.276363 -0.995185 -0.098018 0.000000
0.074912 0.000000 0.304857 -0.995185 -0.098018 0.000000
0.074912 0.000000 0.304857 -0.995185 0.098018 0.000000
0.074912 0.000000 0.276363 -0.995185 0.098018 0.000000
0.073472 -0.014614 0.276363 -0.995185 0.098018 0.000000
0.073472 -0.014614 0.304857 -0.995185 0.098018 0.000000
0.073472 -0.014614 0.304857 -0.956941 0.290283 0.000000
0.073472 -0.014614 0.276363 -0.956941 0.290283 0.000000
0.069210 -0.028667 0.276363 -0.956941 0.290283 0.000000
0.069210 -0.028667 0.304857 -0.956941 0.290283 0.000000
0.069210 -0.028667 0.304857 -0.881921 0.471397 0.000000
0.069210 -0.028667 0.276363 -0.881921 0.471397 0.000000
0.062287 -0.041618 0.276363 -0.881921 0.471397 0.000000
0.062287 -0.041618 0.304857 -0.881921 0.471397 0.000000
0.062287 -0.041618 0.304857 -0.773010 0.634394 0.000000
0.062287 -0.041618 0.276363 -0.773010 0.634394 0.000000
0.052971 -0.052970 0.276363 -0.773010 0.634394 0.000000
0.052971 -0.052970 0.304857 -0.773010 0.634394 0.000000
0.052971 -0.052970 0.304857 -0.634395 0.773009 0.000000
0.052971 -0.052970 0.276363 -0.634395 0.773009 0.000000
0.041619 -0.062287 0.276363 -0.634395 0.773009 0.000000
0.041619 -0.062287 0.304857 -0.634395 0.773009 0.000000
0.041619 -0.062287 0.304857 -0.471396 0.881922 0.000000
0.041619 -0.062287 0.276363 -0.471396 0.881922 0.000000
0.028668 -0.069209 0.276363 -0.471396 0.881922 0.000000
0.028668 -0.069209 0.304857 -0.471396 0.881922 0.000000
0.028668 -0.069209 0.304857 -0.290285 0.956940 0.000000
0.028668 -0.069209 0.276363 -0.290285 0.956940 0.000000
0.014615 -0.073472 0.276363 -0.290285 0.956940 0.000000
0.014615 -0.073472 0.304857 -0.290285 0.956940 0.000000
0.014615 -0.073472 0.304857 -0.098017 0.995185 0.000000
0.014615 -0.073472 0.276363 -0.098017 0.995185 0.000000
0.000000 -0.074912 0.276363 -0.098017 0.995185 0.000000
0.000000 -0.074912 0.304857 -0.098017 0.995185 0.000000
0.000000 -0.074912 0.304857 0.098017 0.995185 0.000000
0.000000 -0.074912 0.276363 0.098017 0.995185 0.000000
-0.014615 -0.073472 0.276363 0.098017 0.995185 0.000000
-0.014615 -0.073472 0.304857 0.098017 0.995185 0.000000
-0.014615 -0.073472 0.304857 0.290285 0.956940 0.000000
-0.014615 -0.073472 0.276363 0.290285 0.956940 0.000000
-0.028667 -0.069209 0.276363 0.290285 0.956940 0.000000
-0.028667 -0.069209 0.304857 0.290285 0.956940 0.000000
-0.028667 -0.069209 0.304857 0.471398 0.881921 0.000000
-0.028667 -0.069209 0.276363 0.471398 0.881921 0.000000
-0.041619 -0.062287 0.276363 0.471398 0.881921 0.000000
-0.041619 -0.062287 0.304857 0.471398 0.881921 0.000000
-0.041619 -0.062287 0.304857 0.634394 0.773010 0.000000
-0.041619 -0.062287 0.276363 0.634394 0.773010 0.000000
-0.052971 -0.052970 0.276363 0.634394 0.773010 0.000000
-0.052971 -0.052970 0.304857 0.634394 0.773010 0.000000
-0.052971 -0.052970 0.304857 0.773011 0.634392 0.000000
-0.052971 -0.052970 0.276363 0.773011 0.634392 0.000000
-0.062287 -0.041618 0.276363 0.773011 0.634392 0.000000
-0.062287 -0.041618 0.304857 0.773011 0.634392 0.000000
-0.062287 -0.041618 0.304857 0.881921 0.471398 0.000000
-0.062287 -0.041618 0.276363 0.881921 0.471398 0.000000
-0.069209 -0.028667 0.276363 0.881921 0.471398 0.000000
-0.069209 -0.028667 0.304857 0.881921 0.471398 0.000000
-0.069209 -0.028667 0.304857 0.956941 0.290282 0.000000
-0.069209 -0.028667 0.276363 0.956941 0.290282 0.000000
-0.073472 -0.014614 0.276363 0.956941 0.290282 0.000000
-0.073472 -0.014614 0.304857 0.956941 0.290282 0.000000
-0.073472 -0.014614 0.304857 0.995185 0.098017 0.000000
-0.073472 -0.014614 0.276363 0.995185 0.098017 0.000000
-0.074912 0.000000 0.276363 0.995185 0.098017 0.000000
-0.074912 0.000000 0.304857 0.995185 0.098017 0.000000
-0.074912 0.000000 0.304857 0.995185 -0.098017 0.000000
-0.074912 0.000000 0.276363 0.995185 -0.098017 0.000000
-0.073472 0.014615 0.276363 0.995185 -0.098017 0.000000
-0.073472 0.014615 0.304857 0.995185 -0.098017 0.000000
-0.073472 0.014615 0.304857 0.956939 -0.290288 0.000000
-0.073472 0.014615 0.276363 0.956939 -0.290288 0.000000
-0.069209 0.028668 0.276363 0.956939 -0.290288 0.000000
-0.069209 0.028668 0.304857 0.956939 -0.290288 0.000000
-0.069209 0.028668 0.304857 0.881921 -0.471397 0.000000
-0.069209 0.028668 0.276363 0.881921 -0.471397 0.000000
-0.062287 0.041619 0.276363 0.881921 -0.471397 0.000000
-0.062287 0.041619 0.304857 0.881921 -0.471397 0.000000
-0.062287 0.041619 0.304857 0.773009 -0.634395 0.000000
-0.062287 0.041619 0.276363 0.773009 -0.634395 0.000000
-0.052971 0.052971 0.276363 0.773009 -0.634395 0.000000
-0.052971 0.052971 0.304857 0.773009 -0.634395 0.000000
-0.052971 0.052971 0.304857 0.634394 -0.773010 0.000000
-0.052971 0.052971 0.276363 0.634394 -0.773010 0.000000
-0.041619 0.062287 0.276363 0.634394 -0.773010 0.000000
-0.041619 0.062287 0.304857 0.634394 -0.773010 0.000000
-0.041619 0.062287 0.304857 0.471395 -0.881922 0.000000
-0.041619 0.062287 0.276363 0.471395 -0.881922 0.000000
-0.028667 0.069210 0.276363 0.471395 -0.881922 0.000000
-0.028667 0.069210 0.304857 0.471395 -0.881922 0.000000
-0.014614 0.073473 0.304857 0.098015 -0.995185 0.000000
-0.014614 0.073473 0.276363 0.098015 -0.995185 0.000000
0.000000 0.074912 0.276363 0.098015 -0.995185 0.000000
0.000000 0.074912 0.304857 0.098015 -0.995185 0.000000
-0.028667 0.069210 0.304857 0.290282 -0.956941 0.000000
-0.028667 0.069210 0.276363 0.290282 -0.956941 0.000000
-0.014614 0.073473 0.276363 0.290282 -0.956941 0.000000
-0.014614 0.073473 0.304857 0.290282 -0.956941 0.000000
-0.103357 0.020559 0.249819 0.630292 -0.191199 -0.752446
-0.097360 0.040328 0.249819 0.630292 -0.191199 -0.752446
-0.069209 0.028668 0.276363 0.630292 -0.191199 -0.752446
-0.073472 0.014615 0.276363 0.630292 -0.191199 -0.752446
0.000000 -0.105381 0.365961 -0.087801 0.891453 0.444524
0.020559 -0.103356 0.365961 -0.087801 0.891453 0.444524
0.014615 -0.073472 0.304857 -0.087801 0.891453 0.444524
0.000000 -0.074912 0.304857 -0.087801 0.891453 0.444524
0.000000 0.105382 0.365961 0.087799 -0.891454 0.444524
-0.020559 0.103357 0.365961 0.087799 -0.891454 0.444524
-0.014614 0.073473 0.304857 0.087799 -0.891454 0.444524
0.000000 0.074912 0.304857 0.087799 -0.891454 0.444524
0.058547 0.087622 0.249819 -0.417845 -0.509147 -0.752446
0.074516 0.074516 0.249819 -0.417845 -0.509147 -0.752446
0.052971 0.052971 0.276363 -0.417845 -0.509147 -0.752446
0.041619 0.062287 0.276363 -0.417845 -0.509147 -0.752446
0.103357 -0.020559 0.365961 -0.891454 0.087801 0.444524
0.105382 0.000000 0.365961 -0.891454 0.087801 0.444524
0.074912 0.000000 0.304857 -0.891454 0.087801 0.444524
0.073472 -0.014614 0.304857 -0.891454 0.087801 0.444524
-0.040328 -0.097360 0.249819 0.310488 0.580880 -0.752446
-0.058547 -0.087621 0.249819 0.310488 0.580880 -0.752446
-0.041619 -0.062287 0.276363 0.310488 0.580880 -0.752446
-0.028667 -0.069209 0.276363 0.310488 0.580880 -0.752446
-0.105381 0.000000 0.365961 0.891453 0.087801 0.444524
-0.103357 -0.020559 0.365961 0.891453 0.087801 0.444524
-0.073472 -0.014614 0.304857 0.891453 0.087801 0.444524
-0.074912 0.000000 0.304857 0.891453 0.087801 0.444524
0.040328 0.097360 0.365961 -0.260028 -0.857195 0.444524
0.020559 0.103357 0.365961 -0.260028 -0.857195 0.444524
0.014615 0.073473 0.304857 -0.260028 -0.857195 0.444524
0.028668 0.069210 0.304857 -0.260028 -0.857195 0.444524
0.087622 -0.058547 0.249819 -0.509146 0.417846 -0.752446
0.074516 -0.074516 0.249819 -0.509146 0.417846 -0.752446
0.052971 -0.052970 0.276363 -0.509146 0.417846 -0.752446
0.062287 -0.041618 0.276363 -0.509146 0.417846 -0.752446
-0.097360 0.040328 0.249819 0.580881 -0.310488 -0.752446
-0.087621 0.058547 0.249819 0.580881 -0.310488 -0.752446
-0.062287 0.041619 0.276363 0.580881 -0.310488 -0.752446
-0.069209 0.028668 0.276363 0.580881 -0.310488 -0.752446
-0.020559 -0.103356 0.365961 0.087801 0.891453 0.444524
0.000000 -0.105381 0.365961 0.087801 0.891453 0.444524
0.000000 -0.074912 0.304857 0.087801 0.891453 0.444524
-0.014615 -0.073472 0.304857 0.087801 0.891453 0.444524
0.074516 0.074516 0.249819 -0.509146 -0.417846 -0.752446
0.087622 0.058547 0.249819 -0.509146 -0.417846 -0.752446
0.062287 0.041619 0.276363 -0.509146 -0.417846 -0.752446
0.052971 0.052971 0.276363 -0.509146 -0.417846 -0.752446
-0.020559 0.103357 0.365961 0.260025 -0.857196 0.444524
-0.040328 0.097360 0.365961 0.260025 -0.857196 0.444524
-0.028667 0.069210 0.304857 0.260025 -0.857196 0.444524
-0.014614 0.073473 0.304857 0.260025 -0.857196 0.444524
0.097360 -0.040327 0.365961 -0.857196 0.260025 0.444524
0.103357 -0.020559 0.365961 -0.857196 0.260025 0.444524
0.073472 -0.014614 0.304857 -0.857196 0.260025 0.444524
0.069210 -0.028667 0.304857 -0.857196 0.260025 0.444524
-0.058547 -0.087621 0.249819 0.417846 0.509146 -0.752446
-0.074516 -0.074516 0.249819 0.417846 0.509146 -0.752446
-0.052971 -0.052970 0.276363 0.417846 0.509146 -0.752446
-0.041619 -0.062287 0.276363 0.417846 0.509146 -0.752446
-0.103357 0.020559 0.365961 0.891453 -0.087801 0.444524
-0.105381 0.000000 0.365961 0.891453 -0.087801 0.444524
-0.074912 0.000000 0.304857 0.891453 -0.087801 0.444524
-0.073472 0.014615 0.304857 0.891453 -0.087801 0.444524
0.058547 0.087622 0.365961 -0.422263 -0.789995 0.444524
0.040328 0.097360 0.365961 -0.422263 -0.789995 0.444524
0.028668 0.069210 0.304857 -0.422263 -0.789995 0.444524
0.041619 0.062287 0.304857 -0.422263 -0.789995 0.444524
0.074516 -0.074516 0.249819 -0.417846 0.509145 -0.752446
0.058547 -0.087621 0.249819 -0.417846 0.509145 -0.752446
0.041619 -0.062287 0.276363 -0.417846 0.509145 -0.752446
0.052971 -0.052970 0.276363 -0.417846 0.509145 -0.752446
-0.087621 0.058547 0.249819 0.509146 -0.417846 -0.752446
-0.074516 0.074516 0.249819 0.509146 -0.417846 -0.752446
-0.052971 0.052971 0.276363 0.509146 -0.417846 -0.752446
-0.062287 0.041619 0.276363 0.509146 -0.417846 -0.752446
-0.040328 -0.097360 0.365961 0.260028 0.857195 0.444524
-0.020559 -0.103356 0.365961 0.260028 0.857195 0.444524
-0.014615 -0.073472 0.304857 0.260028 0.857195 0.444524
-0.028667 -0.069209 0.304857 0.260028 0.857195 0.444524
0.087622 0.058547 0.249819 -0.580880 -0.310488 -0.752446
0.097360 0.040328 0.249819 -0.580880 -0.310488 -0.752446
0.069210 0.028668 0.276363 -0.580880 -0.310488 -0.752446
0.062287 0.041619 0.276363 -0.580880 -0.310488 -0.752446
-0.074516 -0.074516 0.249819 0.509147 0.417845 -0.752446
-0.087622 -0.058546 0.249819 0.509147 0.417845 -0.752446
-0.062287 -0.041618 0.276363 0.509147 0.417845 -0.752446
-0.052971 -0.052970 0.276363 0.509147 0.417845 -0.752446
0.087622 -0.058547 0.365961 -0.789995 0.422262 0.444524
0.097360 -0.040327 0.365961 -0.789995 0.422262 0.444524
0.069210 -0.028667 0.304857 -0.789995 0.422262 0.444524
0.062287 -0.041618 0.304857 -0.789995 0.422262 0.444524
-0.097360 0.040328 0.365961 0.857195 -0.260030 0.444524
-0.103357 0.020559 0.365961 0.857195 -0.260030 0.444524
-0.073472 0.014615 0.304857 0.857195 -0.260030 0.444524
-0.069209 0.028668 0.304857 0.857195 -0.260030 0.444524
0.074516 0.074516 0.365961 -0.568268 -0.692437 0.444524
0.058547 0.087622 0.365961 -0.568268 -0.692437 0.444524
0.041619 0.062287 0.304857 -0.568268 -0.692437 0.444524
0.052971 0.052971 0.304857 -0.568268 -0.692437 0.444524
0.058547 -0.087621 0.249819 -0.310486 0.580881 -0.752446
0.040328 -0.097360 0.249819 -0.310486 0.580881 -0.752446
0.028668 -0.069209 0.276363 -0.310486 0.580881 -0.752446
0.041619 -0.062287 0.276363 -0.310486 0.580881 -0.752446
-0.074516 0.074516 0.249819 0.417846 -0.509146 -0.752446
-0.058547 0.087622 0.249819 0.417846 -0.509146 -0.752446
-0.041619 0.062287 0.276363 0.417846 -0.509146 -0.752446
-0.052971 0.052971 0.276363 0.417846 -0.509146 -0.752446
-0.058547 -0.087621 0.365961 0.422262 0.789995 0.444524
-0.040328 -0.097360 0.365961 0.422262 0.789995 0.444524
-0.028667 -0.069209 0.304857 0.422262 0.789995 0.444524
-0.041619 -0.062287 0.304857 0.422262 0.789995 0.444524
0.097360 0.040328 0.249819 -0.630293 -0.191196 -0.752446
0.103357 0.020559 0.249819 -0.630293 -0.191196 -0.752446
0.073472 0.014615 0.276363 -0.630293 -0.191196 -0.752446
0.069210 0.028668 0.276363 -0.630293 -0.191196 -0.752446
-0.087622 -0.058546 0.249819 0.580880 0.310488 -0.752446
-0.097360 -0.040327 0.249819 0.580880 0.310488 -0.752446
-0.069209 -0.028667 0.276363 0.580880 0.310488 -0.752446
-0.062287 -0.041618 0.276363 0.580880 0.310488 -0.752446
0.074516 -0.074516 0.365961 -0.692437 0.568269 0.444524
0.087622 -0.058547 0.365961 -0.692437 0.568269 0.444524
0.062287 -0.041618 0.304857 -0.692437 0.568269 0.444524
0.052971 -0.052970 0.304857 -0.692437 0.568269 0.444524
-0.087621 0.058547 0.365961 0.789995 -0.422262 0.444524
-0.097360 0.040328 0.365961 0.789995 -0.422262 0.444524
-0.069209 0.028668 0.304857 0.789995 -0.422262 0.444524
-0.062287 0.041619 0.304857 0.789995 -0.422262 0.444524
4 0 1 2 3
4 4 5 6 7
4 8 9 10 11
4 12 13 14 15
4 16 17 18 19
4 20 21 22 23
4 24 25 26 27
4 28 29 30 31
4 32 33 34 35
4 36 37 38 39
4 40 41 42 43
4 44 45 46 47
4 48 49 50 51
4 52 53 54 55
4 56 57 58 59
4 60 61 62 63
4 64 65 66 67
4 68 69 70 71
4 72 73 74 75
4 76 77 78 79
4 80 81 82 83
4 84 85 86 87
4 88 89 90 91
4 92 93 94 95
4 96 97 98 99
4 100 101 102 103
4 104 105 106 107
4 108 109 110 111
4 112 113 114 115
4 116 117 118 119
3 120 121 122
3 120 122 123
3 120 123 124
3 123 125 124
3 125 126 124
3 125 127 126
3 127 128 126
3 127 129 128
3 129 130 128
3 129 131 130
3 131 132 130
3 131 133 132
3 133 134 132
3 133 135 134
3 135 136 134
3 135 137 136
3 137 138 136
3 137 139 138
3 139 140 138
3 139 141 140
3 141 142 140
3 141 143 142
3 143 144 142
3 143 145 144
3 145 146 144
3 145 147 146
3 147 148 146
3 147 149 148
3 149 150 148
3 149 151 150
4 152 153 154 155
4 156 157 158 159
3 160 161 162
3 161 163 162
3 163 164 162
3 163 165 164
3 163 166 165
3 166 167 165
3 166 168 167
3 168 169 167
3 168 170 169
3 170 171 169
3 170 172 171
3 172 173 171
3 172 174 173
3 174 175 173
3 174 176 175
3 176 177 175
3 176 178 177
3 178 179 177
3 178 180 179
3 180 181 179
3 180 182 181
3 182 183 181
3 182 184 183
3 184 185 183
3 184 186 185
3 186 187 185
3 186 188 187
3 188 189 187
3 189 190 187
3 189 191 190
4 192 193 194 195
4 196 197 198 199
4 200 201 202 203
4 204 205 206 207
4 208 209 210 211
4 212 213 214 215
4 216 217 218 219
4 220 221 222 223
4 224 225 226 227
4 228 229 230 231
4 232 233 234 235
4 236 237 238 239
4 240 241 242 243
4 244 245 246 247
4 248 249 250 251
4 252 253 254 255
4 256 257 258 259
4 260 261 262 263
4 264 265 266 267
4 268 269 270 271
4 272 273 274 275
4 276 277 278 279
4 280 281 282 283
4 284 285 286 287
4 288 289 290 291
4 292 293 294 295
4 296 297 298 299
4 300 301 302 303
4 304 305 306 307
4 308 309 310 311
4 312 313 314 315
4 316 317 318 319
4 320 321 322 323
4 324 325 326 327
4 328 329 330 331
4 332 333 334 335
4 336 337 338 339
4 340 341 342 343
4 344 345 346 347
4 348 349 350 351
4 352 353 354 355
4 356 357 358 359
4 360 361 362 363
4 364 365 366 367
4 368 369 370 371
4 372 373 374 375
4 376 377 378 379
4 380 381 382 383
4 384 385 386 387
4 388 389 390 391
4 392 393 394 395
4 396 397 398 399
4 400 401 402 403
4 404 405 406 407
4 408 409 410 411
4 412 413 414 415
4 416 417 418 419
4 420 421 422 423
4 424 425 426 427
4 428 429 430 431
4 432 433 434 435
4 436 437 438 439
4 440 441 442 443
4 444 445 446 447
4 448 449 450 451
4 452 453 454 455
4 456 457 458 459
4 460 461 462 463
4 464 465 466 467
4 468 469 470 471
4 472 473 474 475
4 476 477 478 479
4 480 481 482 483
4 484 485 486 487
4 488 489 490 491
4 492 493 494 495
4 496 497 498 499
4 500 501 502 503
4 504 505 506 507
4 508 509 510 511
4 512 513 514 515
4 516 517 518 519
4 520 521 522 523
4 524 525 526 527
4 528 529 530 531
4 532 533 534 535
4 536 537 538 539
4 540 541 542 543
4 544 545 546 547
4 548 549 550 551
4 552 553 554 555
4 556 557 558 559
4 560 561 562 563
4 564 565 566 567
4 568 569 570 571
4 572 573 574 575
4 576 577 578 579
4 580 581 582 583
4 584 585 586 587
4 588 589 590 591
4 592 593 594 595
4 596 597 598 599
4 600 601 602 603
4 604 605 606 607
4 608 609 610 611
4 612 613 614 615
4 616 617 618 619
4 620 621 622 623
4 624 625 626 627
4 628 629 630 631
4 632 633 634 635
4 636 637 638 639
4 640 641 642 643
4 644 645 646 647
4 648 649 650 651
4 652 653 654 655
4 656 657 658 659
4 660 661 662 663
4 664 665 666 667
4 668 669 670 671
4 672 673 674 675
4 676 677 678 679
4 680 681 682 683
4 684 685 686 687
4 688 689 690 691
4 692 693 694 695
4 696 697 698 699
4 700 701 702 703
