ply
format ascii 1.0
comment Created by Blender 2.69 (sub 0) - www.blender.org, source file: ''
element vertex 162
property float x
property float y
property float z
property float nx
property float ny
property float nz
element face 320
property list uchar uint vertex_indices
end_header
0.000000 -0.000000 -0.100000 0.000000 0.000000 -1.000000
0.020318 -0.014762 -0.096795 0.210944 -0.153233 -0.965392
-0.007761 -0.023885 -0.096795 -0.080569 -0.247963 -0.965392
0.072361 -0.052573 -0.044722 0.723594 -0.525712 -0.447218
0.060955 -0.044286 -0.065752 0.604205 -0.438978 -0.664968
0.081273 -0.029524 -0.050230 0.815180 -0.285714 -0.503800
-0.025115 -0.000000 -0.096795 -0.260750 0.000000 -0.965392
-0.007761 0.023885 -0.096795 -0.080569 0.247963 -0.965392
0.020318 0.014762 -0.096795 0.210944 0.153264 -0.965392
0.086070 -0.044286 -0.025115 0.864986 -0.438978 -0.243049
-0.027639 -0.085065 -0.044722 -0.276376 -0.850642 -0.447218
-0.002964 -0.086418 -0.050230 -0.019837 -0.863552 -0.503800
-0.015521 -0.095542 -0.025115 -0.150212 -0.958281 -0.243049
-0.089443 -0.000000 -0.044722 -0.894406 0.000000 -0.447188
-0.083105 -0.023885 -0.050230 -0.827448 -0.247963 -0.503800
-0.095663 -0.014762 -0.025115 -0.957823 -0.153264 -0.243049
-0.027639 0.085065 -0.044722 -0.276376 0.850642 -0.447218
-0.048397 0.071656 -0.050230 -0.491531 0.710288 -0.503800
-0.043601 0.086419 -0.025115 -0.441725 0.863582 -0.243049
0.072361 0.052572 -0.044722 0.723594 0.525712 -0.447218
0.053194 0.068171 -0.050230 0.523637 0.686972 -0.503800
0.068716 0.068172 -0.025115 0.684805 0.686972 -0.243049
0.068716 -0.068172 -0.025115 0.684805 -0.686972 -0.243049
-0.043601 -0.086419 -0.025115 -0.441725 -0.863582 -0.243049
-0.095663 0.014762 -0.025115 -0.957823 0.153264 -0.243049
-0.015521 0.095542 -0.025115 -0.150212 0.958281 -0.243049
0.086070 0.044286 -0.025115 0.864986 0.438978 -0.243049
0.027639 -0.085065 0.044722 0.276376 -0.850642 0.447218
0.048397 -0.071656 0.050230 0.491531 -0.710288 0.503800
0.023282 -0.071656 0.065752 0.230781 -0.710288 0.664968
-0.072361 -0.052573 0.044722 -0.723594 -0.525712 0.447218
-0.053194 -0.068171 0.050230 -0.523637 -0.686972 0.503800
-0.060955 -0.044286 0.065752 -0.604205 -0.438978 0.664968
-0.072361 0.052572 0.044722 -0.723594 0.525712 0.447218
-0.081273 0.029524 0.050230 -0.815180 0.285714 0.503800
-0.060955 0.044286 0.065752 -0.604205 0.438978 0.664968
0.027639 0.085065 0.044722 0.276376 0.850642 0.447218
0.002964 0.086418 0.050230 0.019837 0.863552 0.503800
0.023282 0.071656 0.065752 0.230781 0.710288 0.664968
0.089443 -0.000000 0.044722 0.894406 0.000000 0.447188
0.083105 0.023885 0.050230 0.827448 0.247963 0.503800
0.075344 -0.000000 0.065751 0.746849 0.000000 0.664968
-0.023282 -0.071656 -0.065752 -0.230781 -0.710288 -0.664968
-0.016246 -0.050000 -0.085065 -0.162450 -0.499985 -0.850642
0.005279 -0.068819 -0.072361 0.059206 -0.683493 -0.727531
0.013820 -0.042532 -0.089443 0.140629 -0.432844 -0.890408
0.026287 -0.080901 -0.052574 0.262856 -0.808985 -0.525712
0.036181 -0.058778 -0.072361 0.353832 -0.587756 -0.727531
0.053194 -0.068171 -0.050230 0.523637 -0.686972 -0.503800
0.042532 -0.030901 -0.085065 0.425306 -0.309000 -0.850642
0.081273 0.029524 -0.050230 0.815180 0.285714 -0.503800
0.060955 0.044286 -0.065752 0.604205 0.438978 -0.664968
0.085065 -0.000000 -0.052574 0.850642 0.000000 -0.525712
0.067082 0.016246 -0.072361 0.668325 0.154881 -0.727531
0.067082 -0.016246 -0.072361 0.668325 -0.154881 -0.727531
0.042532 0.030901 -0.085065 0.425306 0.309000 -0.850642
0.044721 -0.000000 -0.089443 0.455123 0.000000 -0.890408
-0.075344 -0.000000 -0.065751 -0.746849 0.000000 -0.664968
-0.052573 -0.000000 -0.085065 -0.525712 0.000000 -0.850642
-0.063819 -0.026286 -0.072361 -0.631733 -0.267495 -0.727531
-0.036180 -0.026286 -0.089443 -0.368206 -0.267495 -0.890408
-0.068819 -0.050000 -0.052574 -0.688162 -0.499985 -0.525712
-0.044721 -0.052573 -0.072361 -0.449629 -0.518143 -0.727531
-0.048397 -0.071656 -0.050230 -0.491531 -0.710288 -0.503800
-0.023282 0.071656 -0.065752 -0.230781 0.710288 -0.664968
-0.016246 0.049999 -0.085065 -0.162450 0.499985 -0.850642
-0.044721 0.052573 -0.072361 -0.449629 0.518143 -0.727531
-0.036180 0.026286 -0.089443 -0.368206 0.267495 -0.890408
-0.068819 0.050000 -0.052574 -0.688162 0.499985 -0.525712
-0.063819 0.026286 -0.072361 -0.631733 0.267495 -0.727531
-0.083105 0.023885 -0.050230 -0.827448 0.247963 -0.503800
0.036180 0.058778 -0.072361 0.353832 0.587725 -0.727531
0.013820 0.042532 -0.089443 0.140629 0.432844 -0.890408
0.026287 0.080901 -0.052574 0.262856 0.808985 -0.525712
0.005279 0.068819 -0.072361 0.059206 0.683493 -0.727531
-0.002964 0.086418 -0.050230 -0.019837 0.863552 -0.503800
0.095663 -0.014762 0.025115 0.957823 -0.153264 0.243049
0.095663 0.014762 0.025115 0.957823 0.153264 0.243049
0.095106 -0.030901 0.000000 0.951048 -0.309000 0.000000
0.100000 -0.000000 0.000000 0.999939 0.000000 -0.008850
0.094721 -0.016246 -0.027640 0.949614 -0.154881 -0.272408
0.095106 0.030901 0.000000 0.951048 0.309000 0.000000
0.094721 0.016246 -0.027640 0.949614 0.154881 -0.272408
0.015522 -0.095542 0.025115 0.150212 -0.958281 0.243049
0.043601 -0.086419 0.025115 0.441725 -0.863582 0.243049
0.000000 -0.100000 0.000000 0.000000 -1.000000 0.000000
0.030902 -0.095106 0.000000 0.309000 -0.951018 -0.008850
0.013820 -0.095106 -0.027640 0.146123 -0.950987 -0.272408
0.058779 -0.080902 0.000000 0.587756 -0.809015 0.000000
0.044722 -0.085065 -0.027640 0.440748 -0.855251 -0.272408
-0.086070 -0.044286 0.025115 -0.864986 -0.438978 0.243049
-0.068716 -0.068172 0.025115 -0.684805 -0.686972 0.243049
-0.095106 -0.030901 0.000000 -0.951048 -0.309000 0.000000
-0.080902 -0.058778 0.000000 -0.808985 -0.587756 -0.008850
-0.086180 -0.042532 -0.027640 -0.859310 -0.432844 -0.272408
-0.058779 -0.080902 0.000000 -0.587756 -0.809015 0.000000
-0.067082 -0.068819 -0.027640 -0.677206 -0.683493 -0.272408
-0.068716 0.068172 0.025115 -0.684805 0.686972 0.243049
-0.086070 0.044286 0.025115 -0.864986 0.438978 0.243049
-0.058779 0.080902 0.000000 -0.587756 0.809015 0.000000
-0.080902 0.058778 0.000000 -0.808985 0.587756 -0.008850
-0.067082 0.068819 -0.027640 -0.677206 0.683493 -0.272408
-0.095106 0.030901 0.000000 -0.951048 0.309000 0.000000
-0.086180 0.042532 -0.027640 -0.859310 0.432844 -0.272408
0.043601 0.086419 0.025115 0.441725 0.863582 0.243049
0.015522 0.095542 0.025115 0.150212 0.958281 0.243049
0.058779 0.080902 0.000000 0.587756 0.809015 0.000000
0.030902 0.095106 0.000000 0.309000 0.951018 -0.008850
0.044722 0.085065 -0.027640 0.440748 0.855251 -0.272408
0.000000 0.100000 0.000000 0.000000 1.000000 0.000000
0.013820 0.095105 -0.027640 0.146123 0.950987 -0.272408
0.067082 -0.068819 0.027640 0.677206 -0.683493 0.272408
0.080902 -0.058778 -0.000000 0.808985 -0.587756 0.008850
0.068819 -0.050000 0.052574 0.688162 -0.499985 0.525712
0.086180 -0.042532 0.027639 0.859310 -0.432844 0.272408
0.083105 -0.023885 0.050230 0.827448 -0.247963 0.503800
-0.044722 -0.085065 0.027640 -0.440748 -0.855251 0.272408
-0.030902 -0.095106 -0.000000 -0.309000 -0.951018 0.008850
-0.026287 -0.080901 0.052574 -0.262856 -0.808985 0.525712
-0.013820 -0.095106 0.027640 -0.146123 -0.950987 0.272408
0.002964 -0.086418 0.050230 0.019837 -0.863552 0.503800
-0.094721 0.016246 0.027640 -0.949614 0.154881 0.272408
-0.100000 -0.000000 0.000000 -0.999939 0.000000 0.008850
-0.085065 -0.000000 0.052574 -0.850642 0.000000 0.525712
-0.094721 -0.016246 0.027640 -0.949614 -0.154881 0.272408
-0.081273 -0.029524 0.050230 -0.815180 -0.285714 0.503800
-0.013820 0.095105 0.027640 -0.146123 0.950987 0.272408
-0.030902 0.095106 -0.000000 -0.309000 0.951018 0.008850
-0.026287 0.080901 0.052574 -0.262856 0.808985 0.525712
-0.044721 0.085065 0.027640 -0.440748 0.855251 0.272408
-0.053194 0.068171 0.050230 -0.523637 0.686972 0.503800
0.086180 0.042532 0.027640 0.859310 0.432844 0.272408
0.080902 0.058778 0.000000 0.808985 0.587756 0.008850
0.068819 0.050000 0.052574 0.688162 0.499985 0.525712
0.067082 0.068819 0.027640 0.677206 0.683493 0.272408
0.048397 0.071656 0.050230 0.491531 0.710288 0.503800
0.007761 -0.023885 0.096795 0.080569 -0.247963 0.965392
0.025115 -0.000000 0.096795 0.260750 0.000000 0.965392
0.000000 -0.000000 0.100000 0.000000 0.000000 1.000000
0.016246 -0.050000 0.085065 0.162450 -0.499985 0.850642
0.036180 -0.026286 0.089443 0.368206 -0.267495 0.890408
0.044721 -0.052573 0.072361 0.449629 -0.518143 0.727531
0.052573 -0.000000 0.085065 0.525712 0.000000 0.850642
0.063819 -0.026286 0.072361 0.631733 -0.267495 0.727531
-0.020318 -0.014762 0.096795 -0.210944 -0.153233 0.965392
-0.042532 -0.030901 0.085065 -0.425306 -0.309000 0.850642
-0.013820 -0.042532 0.089443 -0.140629 -0.432844 0.890408
-0.036180 -0.058778 0.072361 -0.353832 -0.587725 0.727531
-0.005279 -0.068819 0.072361 -0.059206 -0.683493 0.727531
-0.020318 0.014762 0.096795 -0.210944 0.153233 0.965392
-0.042532 0.030901 0.085065 -0.425306 0.309000 0.850642
-0.044721 -0.000000 0.089443 -0.455123 0.000000 0.890408
-0.067082 0.016246 0.072361 -0.668325 0.154881 0.727531
-0.067082 -0.016246 0.072361 -0.668325 -0.154881 0.727531
0.007761 0.023885 0.096795 0.080569 0.247963 0.965392
0.016246 0.050000 0.085065 0.162450 0.499985 0.850642
-0.013820 0.042532 0.089443 -0.140629 0.432844 0.890408
-0.005279 0.068818 0.072361 -0.059206 0.683493 0.727531
-0.036180 0.058778 0.072361 -0.353832 0.587725 0.727531
0.036180 0.026286 0.089443 0.368206 0.267495 0.890408
0.063819 0.026286 0.072361 0.631733 0.267495 0.727531
0.044721 0.052573 0.072361 0.449629 0.518143 0.727531
3 0 1 2
3 3 4 5
3 0 2 6
3 0 6 7
3 0 7 8
3 3 5 9
3 10 11 12
3 13 14 15
3 16 17 18
3 19 20 21
3 3 9 22
3 10 12 23
3 13 15 24
3 16 18 25
3 19 21 26
3 27 28 29
3 30 31 32
3 33 34 35
3 36 37 38
3 39 40 41
3 42 11 10
3 43 44 42
3 2 45 43
3 42 44 11
3 44 46 11
3 43 45 44
3 45 47 44
3 44 47 46
3 47 48 46
3 2 1 45
3 1 49 45
3 45 49 47
3 49 4 47
3 47 4 48
3 4 3 48
3 50 51 19
3 52 53 50
3 5 54 52
3 50 53 51
3 53 55 51
3 52 54 53
3 54 56 53
3 53 56 55
3 56 8 55
3 5 4 54
3 4 49 54
3 54 49 56
3 49 1 56
3 56 1 8
3 1 0 8
3 57 14 13
3 58 59 57
3 6 60 58
3 57 59 14
3 59 61 14
3 58 60 59
3 60 62 59
3 59 62 61
3 62 63 61
3 6 2 60
3 2 43 60
3 60 43 62
3 43 42 62
3 62 42 63
3 42 10 63
3 64 17 16
3 65 66 64
3 7 67 65
3 64 66 17
3 66 68 17
3 65 67 66
3 67 69 66
3 66 69 68
3 69 70 68
3 7 6 67
3 6 58 67
3 67 58 69
3 58 57 69
3 69 57 70
3 57 13 70
3 51 20 19
3 55 71 51
3 8 72 55
3 51 71 20
3 71 73 20
3 55 72 71
3 72 74 71
3 71 74 73
3 74 75 73
3 8 7 72
3 7 65 72
3 72 65 74
3 65 64 74
3 74 64 75
3 64 16 75
3 76 77 39
3 78 79 76
3 9 80 78
3 76 79 77
3 79 81 77
3 78 80 79
3 80 82 79
3 79 82 81
3 82 26 81
3 9 5 80
3 5 52 80
3 80 52 82
3 52 50 82
3 82 50 26
3 50 19 26
3 83 84 27
3 85 86 83
3 12 87 85
3 83 86 84
3 86 88 84
3 85 87 86
3 87 89 86
3 86 89 88
3 89 22 88
3 12 11 87
3 11 46 87
3 87 46 89
3 46 48 89
3 89 48 22
3 48 3 22
3 90 91 30
3 92 93 90
3 15 94 92
3 90 93 91
3 93 95 91
3 92 94 93
3 94 96 93
3 93 96 95
3 96 23 95
3 15 14 94
3 14 61 94
3 94 61 96
3 61 63 96
3 96 63 23
3 63 10 23
3 97 98 33
3 99 100 97
3 18 101 99
3 97 100 98
3 100 102 98
3 99 101 100
3 101 103 100
3 100 103 102
3 103 24 102
3 18 17 101
3 17 68 101
3 101 68 103
3 68 70 103
3 103 70 24
3 70 13 24
3 104 105 36
3 106 107 104
3 21 108 106
3 104 107 105
3 107 109 105
3 106 108 107
3 108 110 107
3 107 110 109
3 110 25 109
3 21 20 108
3 20 73 108
3 108 73 110
3 73 75 110
3 110 75 25
3 75 16 25
3 84 28 27
3 88 111 84
3 22 112 88
3 84 111 28
3 111 113 28
3 88 112 111
3 112 114 111
3 111 114 113
3 114 115 113
3 22 9 112
3 9 78 112
3 112 78 114
3 78 76 114
3 114 76 115
3 76 39 115
3 91 31 30
3 95 116 91
3 23 117 95
3 91 116 31
3 116 118 31
3 95 117 116
3 117 119 116
3 116 119 118
3 119 120 118
3 23 12 117
3 12 85 117
3 117 85 119
3 85 83 119
3 119 83 120
3 83 27 120
3 98 34 33
3 102 121 98
3 24 122 102
3 98 121 34
3 121 123 34
3 102 122 121
3 122 124 121
3 121 124 123
3 124 125 123
3 24 15 122
3 15 92 122
3 122 92 124
3 92 90 124
3 124 90 125
3 90 30 125
3 105 37 36
3 109 126 105
3 25 127 109
3 105 126 37
3 126 128 37
3 109 127 126
3 127 129 126
3 126 129 128
3 129 130 128
3 25 18 127
3 18 99 127
3 127 99 129
3 99 97 129
3 129 97 130
3 97 33 130
3 77 40 39
3 81 131 77
3 26 132 81
3 77 131 40
3 131 133 40
3 81 132 131
3 132 134 131
3 131 134 133
3 134 135 133
3 26 21 132
3 21 106 132
3 132 106 134
3 106 104 134
3 134 104 135
3 104 36 135
3 136 137 138
3 139 140 136
3 29 141 139
3 136 140 137
3 140 142 137
3 139 141 140
3 141 143 140
3 140 143 142
3 143 41 142
3 29 28 141
3 28 113 141
3 141 113 143
3 113 115 143
3 143 115 41
3 115 39 41
3 144 136 138
3 145 146 144
3 32 147 145
3 144 146 136
3 146 139 136
3 145 147 146
3 147 148 146
3 146 148 139
3 148 29 139
3 32 31 147
3 31 118 147
3 147 118 148
3 118 120 148
3 148 120 29
3 120 27 29
3 149 144 138
3 150 151 149
3 35 152 150
3 149 151 144
3 151 145 144
3 150 152 151
3 152 153 151
3 151 153 145
3 153 32 145
3 35 34 152
3 34 123 152
3 152 123 153
3 123 125 153
3 153 125 32
3 125 30 32
3 154 149 138
3 155 156 154
3 38 157 155
3 154 156 149
3 156 150 149
3 155 157 156
3 157 158 156
3 156 158 150
3 158 35 150
3 38 37 157
3 37 128 157
3 157 128 158
3 128 130 158
3 158 130 35
3 130 33 35
3 137 154 138
3 142 159 137
3 41 160 142
3 137 159 154
3 159 155 154
3 142 160 159
3 160 161 159
3 159 161 155
3 161 38 155
3 41 40 160
3 40 133 160
3 160 133 161
3 133 135 161
3 161 135 38
3 135 36 38
