ply
format ascii 1.0
comment Created by Blender 2.69 (sub 0) - www.blender.org, source file: ''
element vertex 280
property float x
property float y
property float z
property float nx
property float ny
property float nz
property float s
property float t
element face 70
property list uchar uint vertex_indices
end_header
-10.454160 1.107419 10.135504 0.000000 -1.000000 0.000000 0.000370 0.475503
-10.454158 1.107418 -9.864496 0.000000 -1.000000 0.000000 0.000370 0.000370
9.545842 1.107422 -9.864493 0.000000 -1.000000 0.000000 0.475503 0.000370
9.545840 1.107424 10.135507 0.000000 -1.000000 0.000000 0.475503 0.475502
-10.454160 -0.892581 10.135504 0.000000 -1.000000 0.000000 0.000370 0.951375
-10.454158 -0.892582 -9.864496 0.000000 -1.000000 0.000000 0.000370 0.476243
9.545842 -0.892579 -9.864493 0.000000 -1.000000 0.000000 0.475503 0.476243
9.545840 -0.892577 10.135507 0.000000 -1.000000 0.000000 0.475503 0.951375
8.545841 -0.892577 10.135507 0.000000 0.000000 1.000000 0.476243 0.548253
9.545840 -0.892577 10.135507 0.000000 0.000000 1.000000 0.476243 0.524497
9.545840 1.107424 10.135507 0.000000 0.000000 1.000000 0.523756 0.524497
8.545841 1.107423 10.135507 0.000000 0.000000 1.000000 0.523756 0.548253
9.545840 -0.892577 10.135507 1.000000 0.000000 0.000000 0.476243 0.048624
9.545840 -0.892577 9.135507 1.000000 0.000000 0.000000 0.476243 0.024867
9.545840 1.107424 9.135507 1.000000 0.000000 0.000000 0.523756 0.024867
9.545840 1.107424 10.135507 1.000000 0.000000 0.000000 0.523756 0.048624
9.545840 -0.892577 9.135507 0.000000 -0.000000 -1.000000 0.548993 0.329261
8.545841 -0.892577 9.135507 0.000000 -0.000000 -1.000000 0.548993 0.305505
8.545841 1.107423 9.135507 0.000000 -0.000000 -1.000000 0.596507 0.305505
9.545840 1.107424 9.135507 0.000000 -0.000000 -1.000000 0.596507 0.329261
8.545841 -0.892577 9.135507 -1.000000 -0.000000 0.000000 0.524496 0.281008
8.545841 -0.892577 10.135507 -1.000000 -0.000000 0.000000 0.524496 0.257251
8.545841 1.107423 10.135507 -1.000000 -0.000000 0.000000 0.572010 0.257251
8.545841 1.107423 9.135507 -1.000000 -0.000000 0.000000 0.572010 0.281008
3.545840 -0.892578 10.135506 0.000000 0.000000 1.000000 0.524496 0.256511
4.545840 -0.892578 10.135506 0.000000 0.000000 1.000000 0.524496 0.232754
4.545840 1.107422 10.135506 0.000000 0.000000 1.000000 0.572010 0.232754
3.545840 1.107422 10.135506 0.000000 0.000000 1.000000 0.572010 0.256511
4.545840 -0.892578 10.135506 1.000000 0.000000 0.000001 0.572750 0.256511
4.545841 -0.892578 9.135506 1.000000 0.000000 0.000001 0.572750 0.232754
4.545840 1.107422 9.135506 1.000000 0.000000 0.000001 0.620263 0.232754
4.545840 1.107422 10.135506 1.000000 0.000000 0.000001 0.620263 0.256511
4.545841 -0.892578 9.135506 0.000000 -0.000000 -1.000000 0.476243 0.073121
3.545841 -0.892578 9.135506 0.000000 -0.000000 -1.000000 0.476243 0.049364
3.545840 1.107422 9.135506 0.000000 -0.000000 -1.000000 0.523756 0.049364
4.545840 1.107422 9.135506 0.000000 -0.000000 -1.000000 0.523756 0.073121
3.545841 -0.892578 9.135506 -1.000000 -0.000000 -0.000000 0.524496 0.572750
3.545840 -0.892578 10.135506 -1.000000 -0.000000 -0.000000 0.524496 0.548994
3.545840 1.107422 10.135506 -1.000000 -0.000000 -0.000000 0.572010 0.548994
3.545840 1.107422 9.135506 -1.000000 -0.000000 -0.000000 0.572010 0.572750
-1.454160 -0.892579 10.135506 0.000000 0.000000 1.000000 0.572750 0.378255
-0.454160 -0.892579 10.135506 0.000000 0.000000 1.000000 0.572750 0.354498
-0.454160 1.107421 10.135506 0.000000 0.000000 1.000000 0.620263 0.354498
-1.454160 1.107421 10.135506 0.000000 0.000000 1.000000 0.620263 0.378255
-0.454160 -0.892579 10.135506 1.000000 0.000000 0.000001 0.476243 0.232014
-0.454159 -0.892579 9.135505 1.000000 0.000000 0.000001 0.476243 0.208257
-0.454160 1.107421 9.135506 1.000000 0.000000 0.000001 0.523756 0.208257
-0.454160 1.107421 10.135506 1.000000 0.000000 0.000001 0.523756 0.232014
-0.454159 -0.892579 9.135505 0.000000 0.000000 -1.000000 0.500740 0.121374
-1.454159 -0.892579 9.135505 0.000000 0.000000 -1.000000 0.500740 0.097618
-1.454160 1.107421 9.135506 0.000000 0.000000 -1.000000 0.548253 0.097618
-0.454160 1.107421 9.135506 0.000000 0.000000 -1.000000 0.548253 0.121374
-1.454159 -0.892579 9.135505 -1.000000 -0.000000 -0.000000 0.476243 0.145871
-1.454160 -0.892579 10.135506 -1.000000 -0.000000 -0.000000 0.476243 0.122115
-1.454160 1.107421 10.135506 -1.000000 -0.000000 -0.000000 0.523756 0.122115
-1.454160 1.107421 9.135506 -1.000000 -0.000000 -0.000000 0.523756 0.145871
-6.454160 -0.892580 10.135505 0.000000 0.000000 1.000000 0.524496 0.281748
-5.454160 -0.892579 10.135505 0.000000 0.000000 1.000000 0.548253 0.281748
-5.454160 1.107421 10.135505 0.000000 0.000000 1.000000 0.548253 0.329261
-6.454160 1.107420 10.135505 0.000000 0.000000 1.000000 0.524496 0.329261
-5.454160 -0.892579 10.135505 1.000000 0.000000 0.000000 0.524496 0.048624
-5.454160 -0.892579 9.135505 1.000000 0.000000 0.000000 0.524496 0.024867
-5.454160 1.107421 9.135505 1.000000 0.000000 0.000000 0.572010 0.024867
-5.454160 1.107421 10.135505 1.000000 0.000000 0.000000 0.572010 0.048624
-5.454160 -0.892579 9.135505 0.000000 -0.000000 -1.000000 0.524496 0.548253
-6.454160 -0.892580 9.135505 0.000000 -0.000000 -1.000000 0.524496 0.524497
-6.454160 1.107420 9.135505 0.000000 -0.000000 -1.000000 0.572010 0.524497
-5.454160 1.107421 9.135505 0.000000 -0.000000 -1.000000 0.572010 0.548253
-6.454160 -0.892580 9.135505 -1.000000 -0.000000 0.000000 0.524496 0.232014
-6.454160 -0.892580 10.135505 -1.000000 -0.000000 0.000000 0.524496 0.208257
-6.454160 1.107420 10.135505 -1.000000 -0.000000 0.000000 0.572010 0.208257
-6.454160 1.107420 9.135505 -1.000000 -0.000000 0.000000 0.572010 0.232014
8.545841 -0.892577 5.135507 0.000000 0.000000 1.000000 0.572750 0.646241
9.545840 -0.892577 5.135507 0.000000 0.000000 1.000000 0.572750 0.622484
9.545839 1.107423 5.135507 0.000000 0.000000 1.000000 0.620263 0.622485
8.545841 1.107423 5.135507 0.000000 0.000000 1.000000 0.620263 0.646241
9.545840 -0.892577 5.135507 1.000000 0.000000 0.000000 0.476243 0.427249
9.545840 -0.892577 4.135507 1.000000 0.000000 0.000000 0.476243 0.403492
9.545839 1.107423 4.135507 1.000000 0.000000 0.000000 0.523756 0.403492
9.545839 1.107423 5.135507 1.000000 0.000000 0.000000 0.523756 0.427249
9.545840 -0.892577 4.135507 0.000000 -0.000000 -1.000000 0.524496 0.646241
8.545841 -0.892577 4.135507 0.000000 -0.000000 -1.000000 0.524496 0.622484
8.545841 1.107423 4.135507 0.000000 -0.000000 -1.000000 0.572010 0.622484
9.545839 1.107423 4.135507 0.000000 -0.000000 -1.000000 0.572010 0.646241
8.545841 -0.892577 4.135507 -1.000000 -0.000000 0.000000 0.476243 0.572750
8.545841 -0.892577 5.135507 -1.000000 -0.000000 0.000000 0.476243 0.548994
8.545841 1.107423 5.135507 -1.000000 -0.000000 0.000000 0.523756 0.548994
8.545841 1.107423 4.135507 -1.000000 -0.000000 0.000000 0.523756 0.572750
3.545841 -0.892578 5.135506 0.000000 0.000000 1.000000 0.548993 0.353758
4.545841 -0.892578 5.135506 0.000000 0.000000 1.000000 0.548993 0.330001
4.545841 1.107422 5.135506 0.000000 0.000000 1.000000 0.596507 0.330001
3.545841 1.107422 5.135506 0.000000 0.000000 1.000000 0.596507 0.353758
4.545841 -0.892578 5.135506 1.000000 0.000000 0.000000 0.524496 0.194865
4.545841 -0.892578 4.135506 1.000000 0.000000 0.000000 0.524496 0.171108
4.545841 1.107422 4.135506 1.000000 0.000000 0.000000 0.572010 0.171108
4.545841 1.107422 5.135506 1.000000 0.000000 0.000000 0.572010 0.194865
4.545841 -0.892578 4.135506 0.000000 -0.000000 -1.000000 0.524496 0.073121
3.545841 -0.892578 4.135506 0.000000 -0.000000 -1.000000 0.524496 0.049364
3.545841 1.107422 4.135506 0.000000 -0.000000 -1.000000 0.572010 0.049364
4.545841 1.107422 4.135506 0.000000 -0.000000 -1.000000 0.572010 0.073121
3.545841 -0.892578 4.135506 -1.000000 -0.000000 0.000000 0.524496 0.597247
3.545841 -0.892578 5.135506 -1.000000 -0.000000 0.000000 0.524496 0.573491
3.545841 1.107422 5.135506 -1.000000 -0.000000 0.000000 0.572010 0.573491
3.545841 1.107422 4.135506 -1.000000 -0.000000 0.000000 0.572010 0.597247
-1.454159 -0.892579 5.135505 -0.000000 -0.000000 1.000000 0.597247 0.329261
-0.454159 -0.892579 5.135505 -0.000000 -0.000000 1.000000 0.597247 0.305505
-0.454159 1.107421 5.135506 -0.000000 -0.000000 1.000000 0.644760 0.305505
-1.454159 1.107421 5.135505 -0.000000 -0.000000 1.000000 0.644760 0.329261
-0.454159 -0.892579 5.135505 1.000000 0.000000 0.000000 0.476243 0.402752
-0.454159 -0.892579 4.135505 1.000000 0.000000 0.000000 0.476243 0.378995
-0.454159 1.107421 4.135505 1.000000 0.000000 0.000000 0.523756 0.378995
-0.454159 1.107421 5.135506 1.000000 0.000000 0.000000 0.523756 0.402752
-0.454159 -0.892579 4.135505 0.000000 -0.000000 -1.000000 0.572750 0.024127
-1.454159 -0.892579 4.135505 0.000000 -0.000000 -1.000000 0.572750 0.000370
-1.454159 1.107421 4.135505 0.000000 -0.000000 -1.000000 0.620263 0.000370
-0.454159 1.107421 4.135505 0.000000 -0.000000 -1.000000 0.620263 0.024127
-1.454159 -0.892579 4.135505 -1.000000 -0.000000 0.000000 0.572750 0.170368
-1.454159 -0.892579 5.135505 -1.000000 -0.000000 0.000000 0.572750 0.146612
-1.454159 1.107421 5.135505 -1.000000 -0.000000 0.000000 0.620263 0.146612
-1.454159 1.107421 4.135505 -1.000000 -0.000000 0.000000 0.620263 0.170368
-6.454159 -0.892581 5.135505 0.000000 0.000000 1.000000 0.476243 0.073861
-5.454159 -0.892580 5.135505 0.000000 0.000000 1.000000 0.500000 0.073861
-5.454159 1.107420 5.135505 0.000000 0.000000 1.000000 0.500000 0.121374
-6.454159 1.107420 5.135505 0.000000 0.000000 1.000000 0.476243 0.121374
-5.454159 -0.892580 5.135505 1.000000 0.000000 0.000000 0.524496 0.621744
-5.454159 -0.892580 4.135505 1.000000 0.000000 0.000000 0.524496 0.597988
-5.454159 1.107420 4.135505 1.000000 0.000000 0.000000 0.572010 0.597988
-5.454159 1.107420 5.135505 1.000000 0.000000 0.000000 0.572010 0.621744
-5.454159 -0.892580 4.135505 0.000000 -0.000000 -1.000000 0.572750 0.073121
-6.454159 -0.892580 4.135505 0.000000 -0.000000 -1.000000 0.572750 0.049364
-6.454159 1.107420 4.135505 0.000000 -0.000000 -1.000000 0.620263 0.049364
-5.454159 1.107420 4.135505 0.000000 -0.000000 -1.000000 0.620263 0.073121
-6.454159 -0.892580 4.135505 -1.000000 -0.000000 0.000000 0.524496 0.378255
-6.454159 -0.892581 5.135505 -1.000000 -0.000000 0.000000 0.524496 0.354498
-6.454159 1.107420 5.135505 -1.000000 -0.000000 0.000000 0.572010 0.354498
-6.454159 1.107420 4.135505 -1.000000 -0.000000 0.000000 0.572010 0.378255
8.545843 -0.892578 0.135507 -0.000000 0.000000 1.000000 0.621004 0.548253
9.545840 -0.892578 0.135507 -0.000000 0.000000 1.000000 0.621004 0.524497
9.545840 1.107423 0.135507 -0.000000 0.000000 1.000000 0.668517 0.524497
8.545842 1.107422 0.135506 -0.000000 0.000000 1.000000 0.668517 0.548253
9.545840 -0.892578 0.135507 1.000000 0.000000 0.000000 0.524496 0.024127
9.545840 -0.892578 -0.864493 1.000000 0.000000 0.000000 0.524496 0.000370
9.545840 1.107423 -0.864493 1.000000 0.000000 0.000000 0.572010 0.000370
9.545840 1.107423 0.135507 1.000000 0.000000 0.000000 0.572010 0.024127
9.545840 -0.892578 -0.864493 0.000000 -0.000000 -1.000000 0.621004 0.572750
8.545843 -0.892578 -0.864493 0.000000 -0.000000 -1.000000 0.621004 0.548994
8.545842 1.107422 -0.864493 0.000000 -0.000000 -1.000000 0.668517 0.548994
9.545840 1.107423 -0.864493 0.000000 -0.000000 -1.000000 0.668517 0.572750
8.545843 -0.892578 -0.864493 -1.000000 -0.000000 0.000000 0.500740 0.353758
8.545843 -0.892578 0.135507 -1.000000 -0.000000 0.000000 0.500740 0.330001
8.545842 1.107422 0.135506 -1.000000 -0.000000 0.000000 0.548253 0.330001
8.545842 1.107422 -0.864493 -1.000000 -0.000000 0.000000 0.548253 0.353758
3.545842 -0.892579 0.135506 0.000000 0.000000 1.000000 0.476243 0.306245
4.545842 -0.892578 0.135506 0.000000 0.000000 1.000000 0.500000 0.306245
4.545841 1.107422 0.135506 0.000000 0.000000 1.000000 0.500000 0.353758
3.545841 1.107421 0.135506 0.000000 0.000000 1.000000 0.476243 0.353758
4.545842 -0.892578 0.135506 1.000000 0.000000 0.000000 0.476243 0.256511
4.545842 -0.892578 -0.864494 1.000000 0.000000 0.000000 0.476243 0.232754
4.545842 1.107422 -0.864494 1.000000 0.000000 0.000000 0.523756 0.232754
4.545841 1.107422 0.135506 1.000000 0.000000 0.000000 0.523756 0.256511
4.545842 -0.892578 -0.864494 0.000000 -0.000000 -1.000000 0.524496 0.402752
3.545842 -0.892579 -0.864494 0.000000 -0.000000 -1.000000 0.524496 0.378995
3.545842 1.107421 -0.864494 0.000000 -0.000000 -1.000000 0.572010 0.378995
4.545842 1.107422 -0.864494 0.000000 -0.000000 -1.000000 0.572010 0.402752
3.545842 -0.892579 -0.864494 -1.000000 -0.000000 -0.000000 0.572750 0.572750
3.545842 -0.892579 0.135506 -1.000000 -0.000000 -0.000000 0.572750 0.548994
3.545841 1.107421 0.135506 -1.000000 -0.000000 -0.000000 0.620263 0.548994
3.545842 1.107421 -0.864494 -1.000000 -0.000000 -0.000000 0.620263 0.572750
-1.454158 -0.892580 0.135505 0.000000 0.000000 1.000000 0.572750 0.378995
-0.454158 -0.892579 0.135505 0.000000 0.000000 1.000000 0.596507 0.378995
-0.454159 1.107421 0.135505 0.000000 0.000000 1.000000 0.596507 0.426509
-1.454159 1.107420 0.135505 0.000000 0.000000 1.000000 0.572750 0.426509
-0.454158 -0.892579 0.135505 1.000000 0.000000 -0.000000 0.524496 0.145871
-0.454158 -0.892580 -0.864495 1.000000 0.000000 -0.000000 0.524496 0.122115
-0.454159 1.107420 -0.864495 1.000000 0.000000 -0.000000 0.572010 0.122115
-0.454159 1.107421 0.135505 1.000000 0.000000 -0.000000 0.572010 0.145871
-0.454158 -0.892580 -0.864495 0.000000 -0.000000 -1.000000 0.572750 0.281008
-1.454158 -0.892580 -0.864495 0.000000 -0.000000 -1.000000 0.572750 0.257251
-1.454158 1.107420 -0.864495 0.000000 -0.000000 -1.000000 0.620263 0.257251
-0.454159 1.107420 -0.864495 0.000000 -0.000000 -1.000000 0.620263 0.281007
-1.454158 -0.892580 -0.864495 -1.000000 -0.000000 -0.000001 0.548993 0.121374
-1.454158 -0.892580 0.135505 -1.000000 -0.000000 -0.000001 0.548993 0.097618
-1.454159 1.107420 0.135505 -1.000000 -0.000000 -0.000001 0.596507 0.097618
-1.454158 1.107420 -0.864495 -1.000000 -0.000000 -0.000001 0.596507 0.121374
-6.454158 -0.892581 0.135505 0.000000 0.000000 1.000000 0.476243 0.378255
-5.454158 -0.892581 0.135505 0.000000 0.000000 1.000000 0.476243 0.354498
-5.454158 1.107419 0.135504 0.000000 0.000000 1.000000 0.523756 0.354498
-6.454158 1.107419 0.135504 0.000000 0.000000 1.000000 0.523756 0.378255
-5.454158 -0.892581 0.135505 1.000000 0.000000 0.000000 0.572750 0.194865
-5.454158 -0.892581 -0.864495 1.000000 0.000000 0.000000 0.572750 0.171108
-5.454158 1.107419 -0.864495 1.000000 0.000000 0.000000 0.620263 0.171108
-5.454158 1.107419 0.135504 1.000000 0.000000 0.000000 0.620263 0.194865
-5.454158 -0.892581 -0.864495 0.000000 -0.000000 -1.000000 0.572750 0.548253
-6.454158 -0.892581 -0.864495 0.000000 -0.000000 -1.000000 0.572750 0.524497
-6.454158 1.107419 -0.864495 0.000000 -0.000000 -1.000000 0.620263 0.524497
-5.454158 1.107419 -0.864495 0.000000 -0.000000 -1.000000 0.620263 0.548253
-6.454158 -0.892581 -0.864495 -1.000000 -0.000000 0.000000 0.572750 0.621744
-6.454158 -0.892581 0.135505 -1.000000 -0.000000 0.000000 0.572750 0.597988
-6.454158 1.107419 0.135504 -1.000000 -0.000000 0.000000 0.620263 0.597988
-6.454158 1.107419 -0.864495 -1.000000 -0.000000 0.000000 0.620263 0.621744
8.545843 -0.892578 -4.864493 0.000000 0.000000 1.000000 0.597247 0.073861
9.545842 -0.892578 -4.864493 0.000000 0.000000 1.000000 0.621004 0.073861
9.545842 1.107423 -4.864493 0.000000 0.000000 1.000000 0.621004 0.121374
8.545843 1.107422 -4.864493 0.000000 0.000000 1.000000 0.597247 0.121374
9.545842 -0.892578 -4.864493 1.000000 0.000000 0.000000 0.524496 0.170368
9.545842 -0.892578 -5.864493 1.000000 0.000000 0.000000 0.524496 0.146612
9.545842 1.107422 -5.864493 1.000000 0.000000 0.000000 0.572010 0.146612
9.545842 1.107423 -4.864493 1.000000 0.000000 0.000000 0.572010 0.170368
9.545842 -0.892578 -5.864493 0.000000 -0.000000 -1.000000 0.476243 0.621744
8.545843 -0.892578 -5.864493 0.000000 -0.000000 -1.000000 0.476243 0.597988
8.545843 1.107421 -5.864493 0.000000 -0.000000 -1.000000 0.523756 0.597988
9.545842 1.107422 -5.864493 0.000000 -0.000000 -1.000000 0.523756 0.621744
8.545843 -0.892578 -5.864493 -1.000000 -0.000000 0.000000 0.597247 0.378995
8.545843 -0.892578 -4.864493 -1.000000 -0.000000 0.000000 0.621004 0.378995
8.545843 1.107422 -4.864493 -1.000000 -0.000000 0.000000 0.621004 0.426509
8.545843 1.107421 -5.864493 -1.000000 -0.000000 0.000000 0.597247 0.426508
3.545843 -0.892579 -4.864494 0.000000 0.000000 1.000000 0.476243 0.024127
4.545843 -0.892579 -4.864494 0.000000 0.000000 1.000000 0.476243 0.000370
4.545842 1.107421 -4.864494 0.000000 0.000000 1.000000 0.523756 0.000370
3.545842 1.107421 -4.864494 0.000000 0.000000 1.000000 0.523756 0.024127
4.545843 -0.892579 -4.864494 1.000000 0.000000 0.000000 0.476243 0.281008
4.545843 -0.892579 -5.864494 1.000000 0.000000 0.000000 0.476243 0.257251
4.545842 1.107421 -5.864494 1.000000 0.000000 0.000000 0.523756 0.257251
4.545842 1.107421 -4.864494 1.000000 0.000000 0.000000 0.523756 0.281008
4.545843 -0.892579 -5.864494 0.000000 -0.000000 -1.000000 0.476243 0.194865
3.545843 -0.892579 -5.864494 0.000000 -0.000000 -1.000000 0.476243 0.171108
3.545842 1.107421 -5.864494 0.000000 -0.000000 -1.000000 0.523756 0.171108
4.545842 1.107421 -5.864494 0.000000 -0.000000 -1.000000 0.523756 0.194865
3.545843 -0.892579 -5.864494 -1.000000 -0.000000 0.000000 0.476243 0.170368
3.545843 -0.892579 -4.864494 -1.000000 -0.000000 0.000000 0.476243 0.146612
3.545842 1.107421 -4.864494 -1.000000 -0.000000 0.000000 0.523756 0.146611
3.545842 1.107421 -5.864494 -1.000000 -0.000000 0.000000 0.523756 0.170368
-1.454157 -0.892580 -4.864495 0.000000 0.000000 1.000000 0.572750 0.232014
-0.454158 -0.892580 -4.864495 0.000000 0.000000 1.000000 0.572750 0.208257
-0.454158 1.107420 -4.864495 0.000000 0.000000 1.000000 0.620263 0.208257
-1.454158 1.107420 -4.864495 0.000000 0.000000 1.000000 0.620263 0.232014
-0.454158 -0.892580 -4.864495 1.000000 0.000000 0.000001 0.572750 0.145871
-0.454157 -0.892580 -5.864494 1.000000 0.000000 0.000001 0.572750 0.122115
-0.454158 1.107420 -5.864495 1.000000 0.000000 0.000001 0.620263 0.122115
-0.454158 1.107420 -4.864495 1.000000 0.000000 0.000001 0.620263 0.145871
-0.454157 -0.892580 -5.864494 0.000000 -0.000000 -1.000000 0.476243 0.305504
-1.454157 -0.892580 -5.864494 0.000000 -0.000000 -1.000000 0.476243 0.281748
-1.454158 1.107420 -5.864495 0.000000 -0.000000 -1.000000 0.523756 0.281748
-0.454158 1.107420 -5.864495 0.000000 -0.000000 -1.000000 0.523756 0.305504
-1.454157 -0.892580 -5.864494 -1.000000 -0.000000 0.000000 0.572750 0.597247
-1.454157 -0.892580 -4.864495 -1.000000 -0.000000 0.000000 0.572750 0.573491
-1.454158 1.107420 -4.864495 -1.000000 -0.000000 0.000000 0.620263 0.573491
-1.454158 1.107420 -5.864495 -1.000000 -0.000000 0.000000 0.620263 0.597247
-6.454157 -0.892581 -4.864495 0.000000 0.000000 1.000000 0.476243 0.597247
-5.454158 -0.892581 -4.864495 0.000000 0.000000 1.000000 0.476243 0.573491
-5.454158 1.107419 -4.864495 0.000000 0.000000 1.000000 0.523756 0.573491
-6.454158 1.107419 -4.864495 0.000000 0.000000 1.000000 0.523756 0.597247
-5.454158 -0.892581 -4.864495 1.000000 0.000000 0.000000 0.572750 0.048624
-5.454158 -0.892581 -5.864495 1.000000 0.000000 0.000000 0.572750 0.024867
-5.454158 1.107419 -5.864495 1.000000 0.000000 0.000000 0.620263 0.024867
-5.454158 1.107419 -4.864495 1.000000 0.000000 0.000000 0.620263 0.048624
-5.454158 -0.892581 -5.864495 0.000000 -0.000000 -1.000000 0.597247 0.353758
-6.454157 -0.892581 -5.864495 0.000000 -0.000000 -1.000000 0.597247 0.330001
-6.454158 1.107418 -5.864495 0.000000 -0.000000 -1.000000 0.644760 0.330001
-5.454158 1.107419 -5.864495 0.000000 -0.000000 -1.000000 0.644760 0.353758
-6.454157 -0.892581 -5.864495 -1.000000 -0.000000 0.000000 0.524496 0.427249
-6.454157 -0.892581 -4.864495 -1.000000 -0.000000 0.000000 0.524496 0.403492
-6.454158 1.107419 -4.864495 -1.000000 -0.000000 0.000000 0.572010 0.403492
-6.454158 1.107418 -5.864495 -1.000000 -0.000000 0.000000 0.572010 0.427249
-10.454158 -0.892582 -9.864496 1.000000 0.000000 0.000000 0.903861 0.524497
-10.454158 1.107418 -9.864496 1.000000 0.000000 0.000000 0.951374 0.524497
-10.454160 1.107419 10.135504 1.000000 0.000000 0.000000 0.951374 0.999630
-10.454160 -0.892581 10.135504 1.000000 0.000000 0.000000 0.903861 0.999630
-10.454160 1.107419 10.135504 0.000000 0.000000 -1.000000 0.476243 0.476243
9.545840 1.107424 10.135507 0.000000 0.000000 -1.000000 0.951374 0.476243
9.545840 -0.892577 10.135507 0.000000 0.000000 -1.000000 0.951374 0.523756
-10.454160 -0.892581 10.135504 0.000000 0.000000 -1.000000 0.476243 0.523756
9.545842 1.107422 -9.864493 -0.000000 0.000000 1.000000 0.951376 0.475502
-10.454158 1.107418 -9.864496 -0.000000 0.000000 1.000000 0.476243 0.475503
-10.454158 -0.892582 -9.864496 -0.000000 0.000000 1.000000 0.476243 0.427989
9.545842 -0.892579 -9.864493 -0.000000 0.000000 1.000000 0.951376 0.427989
9.545840 1.107424 10.135507 -1.000000 0.000000 -0.000000 0.952114 0.951376
9.545842 1.107422 -9.864493 -1.000000 0.000000 -0.000000 0.952114 0.476243
9.545842 -0.892579 -9.864493 -1.000000 0.000000 -0.000000 0.999628 0.476243
9.545840 -0.892577 10.135507 -1.000000 0.000000 -0.000000 0.999627 0.951376
4 0 1 2 3
4 4 5 6 7
4 8 9 10 11
4 12 13 14 15
4 16 17 18 19
4 20 21 22 23
4 24 25 26 27
4 28 29 30 31
4 32 33 34 35
4 36 37 38 39
4 40 41 42 43
4 44 45 46 47
4 48 49 50 51
4 52 53 54 55
4 56 57 58 59
4 60 61 62 63
4 64 65 66 67
4 68 69 70 71
4 72 73 74 75
4 76 77 78 79
4 80 81 82 83
4 84 85 86 87
4 88 89 90 91
4 92 93 94 95
4 96 97 98 99
4 100 101 102 103
4 104 105 106 107
4 108 109 110 111
4 112 113 114 115
4 116 117 118 119
4 120 121 122 123
4 124 125 126 127
4 128 129 130 131
4 132 133 134 135
4 136 137 138 139
4 140 141 142 143
4 144 145 146 147
4 148 149 150 151
4 152 153 154 155
4 156 157 158 159
4 160 161 162 163
4 164 165 166 167
4 168 169 170 171
4 172 173 174 175
4 176 177 178 179
4 180 181 182 183
4 184 185 186 187
4 188 189 190 191
4 192 193 194 195
4 196 197 198 199
4 200 201 202 203
4 204 205 206 207
4 208 209 210 211
4 212 213 214 215
4 216 217 218 219
4 220 221 222 223
4 224 225 226 227
4 228 229 230 231
4 232 233 234 235
4 236 237 238 239
4 240 241 242 243
4 244 245 246 247
4 248 249 250 251
4 252 253 254 255
4 256 257 258 259
4 260 261 262 263
4 264 265 266 267
4 268 269 270 271
4 272 273 274 275
4 276 277 278 279
